<svg xmlns="http://www.w3.org/2000/svg" viewBox="0 0 53.54 50.94"><defs><style>.cls-1{fill:#42a5f5;}.cls-2{fill:#ff9800;}</style></defs><title>Asset 248</title><g id="Layer_2" data-name="Layer 2"><g id="Layer_1-2" data-name="Layer 1"><path class="cls-1" d="M35,50.94l-8.27-4.85L18.5,50.94l-3.84-8.79-9.54-.94,2-9.37L0,25.47l7.16-6.37-2-9.37,9.54-.94L18.5,0l8.27,4.85L35,0l3.84,8.79,9.54.94-2,9.37,7.16,6.37-7.16,6.37,2,9.37-9.54.94Zm-8.27-7.15,7.35,4.31,3.41-7.81L46,39.45,44.2,31.13l6.36-5.66L44.2,19.8,46,11.48l-8.48-.84L34.12,2.84,26.77,7.15,19.42,2.84,16,10.64l-8.48.84L9.34,19.8,3,25.47l6.36,5.66L7.52,39.45l8.48.84,3.41,7.81Z"/><path class="cls-2" d="M26.77,38.89A13.42,13.42,0,1,1,40.19,25.47,13.43,13.43,0,0,1,26.77,38.89Zm0-24.86A11.44,11.44,0,1,0,38.21,25.47,11.45,11.45,0,0,0,26.77,14Z"/><polygon class="cls-2" points="25.45 31.59 19.28 25.28 21.38 23.23 25.41 27.36 32.13 20.26 34.26 22.28 25.45 31.59"/></g></g></svg>