<svg xmlns="http://www.w3.org/2000/svg" viewBox="0 0 51.95 43.92"><defs><style>.cls-1{fill:#42a5f5;}.cls-2{fill:#ff9800;}</style></defs><title>Asset 257</title><g id="Layer_2" data-name="Layer 2"><g id="Layer_1-2" data-name="Layer 1"><path class="cls-1" d="M50.51,0H1.44A1.44,1.44,0,0,0,0,1.44V36.07a1.44,1.44,0,0,0,1.44,1.44H22V42.3H11.53a.81.81,0,1,0,0,1.62H40.42a.81.81,0,1,0,0-1.62H29.78V37.51H50.51a1.44,1.44,0,0,0,1.44-1.44V1.44A1.44,1.44,0,0,0,50.51,0Zm-.19,35.88H1.63V1.62h48.7Z"/><rect class="cls-2" x="12.35" y="8.01" width="18.14" height="2.79" rx="0.82" ry="0.82"/><rect class="cls-2" x="32.06" y="7.93" width="8.05" height="2.79" rx="0.82" ry="0.82"/><rect class="cls-2" x="18.11" y="16.14" width="21.66" height="1.18"/><rect class="cls-2" x="18.11" y="18.21" width="12.25" height="1.18"/><circle class="cls-2" cx="13.73" cy="17.76" r="1.9"/><rect class="cls-2" x="18.11" y="21.45" width="21.66" height="1.18"/><rect class="cls-2" x="18.11" y="23.53" width="12.25" height="1.18"/><circle class="cls-2" cx="13.73" cy="23.08" r="1.9"/><rect class="cls-2" x="18.11" y="27.3" width="21.66" height="1.18"/><rect class="cls-2" x="18.11" y="29.37" width="12.25" height="1.18"/><circle class="cls-2" cx="13.73" cy="28.93" r="1.9"/></g></g></svg>