<svg xmlns="http://www.w3.org/2000/svg" viewBox="0 0 69.97 58.62"><defs><style>.cls-1{fill:#ff9800;}.cls-2{fill:#42a5f5;}</style></defs><title>Asset 249</title><g id="Layer_2" data-name="Layer 2"><g id="Layer_1-2" data-name="Layer 1"><path class="cls-1" d="M24.13,58.62H18.77a2.06,2.06,0,0,1-2.05-2.05V54.84A17.82,17.82,0,0,1,12.32,53l-1.24,1.24a2.06,2.06,0,0,1-2.9,0L4.39,50.44a2.06,2.06,0,0,1,0-2.9l1.32-1.32A17.89,17.89,0,0,1,4,41.9H2.05A2.06,2.06,0,0,1,0,39.85V34.49a2.06,2.06,0,0,1,2.05-2.05H4.12a18,18,0,0,1,1.45-3.55L4,27.44a2.06,2.06,0,0,1-.11-2.9l3.64-3.93a2.06,2.06,0,0,1,2.9-.11L12.08,22a17.82,17.82,0,0,1,4.64-2V17.77a2.06,2.06,0,0,1,2.05-2.05h5.36a2.06,2.06,0,0,1,2.05,2.05V20a17.83,17.83,0,0,1,4.06,1.67l1.58-1.58a2.11,2.11,0,0,1,2.9,0l3.79,3.79a2.06,2.06,0,0,1,0,2.9L37,28.31a17.92,17.92,0,0,1,1.78,4.13h2.07a2.06,2.06,0,0,1,2.05,2.05v5.35a2.06,2.06,0,0,1-2.05,2.05H38.92a17.88,17.88,0,0,1-1.41,3.72l1.38,1.28A2.06,2.06,0,0,1,39,49.8l-3.64,3.92a2,2,0,0,1-1.43.65,2.07,2.07,0,0,1-1.47-.55l-1.3-1.21a17.81,17.81,0,0,1-5,2.21v1.73A2.06,2.06,0,0,1,24.13,58.62ZM12,50.46l.67.44a15.88,15.88,0,0,0,5.21,2.2l.78.17v3.3a.07.07,0,0,0,.07.07h5.36a.07.07,0,0,0,.07-.07v-3.3l.78-.17a15.86,15.86,0,0,0,5.71-2.54l.66-.46,2.47,2.29a.07.07,0,0,0,.09,0l3.64-3.93v-.09L35,46l.39-.68a16,16,0,0,0,1.75-4.63l.16-.79h3.53a.07.07,0,0,0,.07-.07V34.49a.07.07,0,0,0-.07-.07H37.23L37,33.67a16,16,0,0,0-2.14-5L34.47,28l2.64-2.64a.07.07,0,0,0,0-.09l-3.79-3.79a.07.07,0,0,0-.09,0L30.54,24.2l-.67-.41a15.88,15.88,0,0,0-4.91-2l-.78-.17V17.77a.07.07,0,0,0-.07-.07H18.77a.07.07,0,0,0-.07.07V21.6l-.78.17a15.88,15.88,0,0,0-5.4,2.33l-.65.44L9.1,22A.07.07,0,0,0,9,22L5.36,25.89a.07.07,0,0,0,0,.09l2.73,2.53-.41.69a16,16,0,0,0-1.83,4.46l-.18.76H2.05a.07.07,0,0,0-.07.07v5.35a.07.07,0,0,0,.07.07H5.58l.16.79A16,16,0,0,0,7.8,45.86l.41.67L5.79,48.95a.07.07,0,0,0,0,.09l3.79,3.79a.07.07,0,0,0,.09,0Z"/><path class="cls-1" d="M21.45,46.08a8.91,8.91,0,1,1,8.91-8.91A8.92,8.92,0,0,1,21.45,46.08Zm0-15.83a6.92,6.92,0,1,0,6.92,6.92A6.93,6.93,0,0,0,21.45,30.25Z"/><path class="cls-2" d="M55.83,32.24h-4a1.78,1.78,0,0,1-1.78-1.78V29.38a13.46,13.46,0,0,1-2.95-1.24l-.78.78a1.82,1.82,0,0,1-2.51,0l-2.8-2.8a1.78,1.78,0,0,1,0-2.51l.84-.84a13.48,13.48,0,0,1-1.16-2.89H39.51a1.78,1.78,0,0,1-1.78-1.78v-4a1.78,1.78,0,0,1,1.78-1.78h1.34a13.51,13.51,0,0,1,.95-2.31l-1-.94a1.78,1.78,0,0,1-.09-2.51l2.69-2.9a1.78,1.78,0,0,1,2.51-.09L47,4.6A13.43,13.43,0,0,1,50.1,3.24V1.78A1.78,1.78,0,0,1,51.87,0h4a1.78,1.78,0,0,1,1.78,1.78V3.24a13.47,13.47,0,0,1,2.7,1.11l1-1a1.82,1.82,0,0,1,2.51,0l2.8,2.8a1.78,1.78,0,0,1,0,2.51l-1,1a13.51,13.51,0,0,1,1.18,2.75H68.2A1.78,1.78,0,0,1,70,14.14v4a1.78,1.78,0,0,1-1.78,1.78H67A13.45,13.45,0,0,1,66,22.31l.88.81A1.78,1.78,0,0,1,67,25.64l-2.69,2.9a1.78,1.78,0,0,1-2.51.09L61,27.88a13.43,13.43,0,0,1-3.39,1.51v1.08A1.78,1.78,0,0,1,55.83,32.24Zm-3.75-2h3.54V27.82l.78-.17a11.48,11.48,0,0,0,4.13-1.84l.66-.46L63,27l2.41-2.59-1.86-1.72.39-.68a11.51,11.51,0,0,0,1.27-3.35l.16-.79H68V14.35H65.32l-.18-.76A11.55,11.55,0,0,0,63.59,10l-.44-.68L65.1,7.38l-2.5-2.5-2,2-.67-.41A11.51,11.51,0,0,0,56.4,5l-.78-.17V2H52.08V4.81L51.31,5A11.48,11.48,0,0,0,47.4,6.67l-.65.44-2-1.9L42.29,7.8l2,1.87-.41.69a11.56,11.56,0,0,0-1.32,3.22l-.18.76H39.72v3.54h2.61l.16.79A11.54,11.54,0,0,0,44,22.41l.41.67-1.79,1.79,2.5,2.5,1.75-1.75.67.44a11.49,11.49,0,0,0,3.77,1.59l.78.17Z"/><path class="cls-2" d="M53.85,23a6.85,6.85,0,1,1,6.85-6.85A6.86,6.86,0,0,1,53.85,23Zm0-11.71a4.86,4.86,0,1,0,4.86,4.86A4.87,4.87,0,0,0,53.85,11.26Z"/></g></g></svg>