<svg xmlns="http://www.w3.org/2000/svg" viewBox="0 0 55.76 55.09"><defs><style>.cls-1{fill:#ff9800;}.cls-2{fill:#42a5f5;}</style></defs><title>Asset 250</title><g id="Layer_2" data-name="Layer 2"><g id="Layer_1-2" data-name="Layer 1"><path class="cls-1" d="M46.5,27H9.26V17H46.5ZM10.73,25.51H45V18.44H10.73Z"/><path class="cls-1" d="M46.5,38.31H9.26v-10H46.5ZM10.73,36.84H45V29.77H10.73Z"/><path class="cls-1" d="M46.62,49.64H9.39v-10H46.62ZM10.86,48.17H45.15V41.1H10.86Z"/><circle class="cls-1" cx="14.74" cy="22.01" r="1.36"/><circle class="cls-1" cx="14.74" cy="33.31" r="1.36"/><circle class="cls-1" cx="14.74" cy="44.64" r="1.36"/><path class="cls-2" d="M8.76,29a8.76,8.76,0,1,1,1.91-17.31A14.68,14.68,0,0,1,38.39,8.58a11.28,11.28,0,1,1,9.68,20.19l-.44.15V26.87l.21-.08a9.34,9.34,0,1,0-9.27-15.93l-1.07.87L37,10.42a12.73,12.73,0,0,0-24.63,2.66l-.16,1.22-1.15-.43a6.73,6.73,0,0,0-2.35-.42,6.82,6.82,0,0,0,0,13.63H9.1V29Z"/><polygon class="cls-1" points="28.61 53.61 28.61 50.43 27.14 50.43 27.14 53.61 22.26 53.61 22.26 55.09 33.55 55.09 33.55 53.61 28.61 53.61"/></g></g></svg>