<svg xmlns="http://www.w3.org/2000/svg" viewBox="0 0 49.76 41.62"><defs><style>.cls-1{fill:#42a5f5;}.cls-2{fill:#ff9800;}</style></defs><title>Asset 251</title><g id="Layer_2" data-name="Layer 2"><g id="Layer_1-2" data-name="Layer 1"><path class="cls-1" d="M47.63,0H2.13A2.13,2.13,0,0,0,0,2.13V39.49a2.13,2.13,0,0,0,2.13,2.13H47.63a2.13,2.13,0,0,0,2.13-2.13V2.13A2.13,2.13,0,0,0,47.63,0ZM2.13,1.82H47.63a.31.31,0,0,1,.3.3V8.35H1.82V2.13A.31.31,0,0,1,2.13,1.82Zm45.51,38H2.13a.31.31,0,0,1-.3-.3V10.31H47.94V39.49A.31.31,0,0,1,47.63,39.8Z"/><circle class="cls-1" cx="5.65" cy="5.36" r="0.89"/><circle class="cls-1" cx="9.51" cy="5.36" r="0.89"/><circle class="cls-1" cx="13.37" cy="5.36" r="0.89"/><polygon class="cls-2" points="5.36 21.29 4.47 19.55 7.03 18.24 4.47 16.93 5.36 15.18 11.33 18.24 5.36 21.29"/><rect class="cls-2" x="11.74" y="20.04" width="4.43" height="1.96"/></g></g></svg>