<svg xmlns="http://www.w3.org/2000/svg" viewBox="0 0 63.93 59.58"><defs><style>.cls-1{fill:#42a5f5;}.cls-2{fill:#ff9800;}</style></defs><title>Asset 252</title><g id="Layer_2" data-name="Layer 2"><g id="Layer_1-2" data-name="Layer 1"><path class="cls-1" d="M11.83,46A24.43,24.43,0,0,1,7.41,32.69a8.47,8.47,0,0,1-1.14.09,8.51,8.51,0,0,1-1-.06,26.54,26.54,0,0,0,4.86,14.55A8.52,8.52,0,0,1,11.83,46Z"/><path class="cls-1" d="M11.79,17.89A24.69,24.69,0,0,1,23.86,8.71a8.44,8.44,0,0,1-.35-2.13A26.82,26.82,0,0,0,10,16.72,8.48,8.48,0,0,1,11.79,17.89Z"/><path class="cls-1" d="M39.36,55.35a24.54,24.54,0,0,1-15.06-.1,8.41,8.41,0,0,1-.74,2,26.63,26.63,0,0,0,16.56.09A8.42,8.42,0,0,1,39.36,55.35Z"/><path class="cls-1" d="M40.08,8.71a24.69,24.69,0,0,1,12.07,9.18,8.49,8.49,0,0,1,1.77-1.18A26.82,26.82,0,0,0,40.42,6.58,8.44,8.44,0,0,1,40.08,8.71Z"/><path class="cls-1" d="M57.67,32.77a8.49,8.49,0,0,1-1.14-.09A24.43,24.43,0,0,1,52,46.11a8.51,8.51,0,0,1,1.66,1.33,26.55,26.55,0,0,0,5-14.74A8.51,8.51,0,0,1,57.67,32.77Z"/><circle class="cls-1" cx="6.27" cy="24.3" r="6.27"/><circle class="cls-1" cx="31.83" cy="6.27" r="6.27"/><circle class="cls-1" cx="57.67" cy="24.3" r="6.27"/><circle class="cls-1" cx="16.05" cy="53.32" r="6.27"/><polygon class="cls-2" points="30.96 33.49 29.02 31.52 28.02 32.5 30.97 35.52 35.2 31.06 34.17 30.09 30.96 33.49"/><path class="cls-2" d="M47.57,47a6.23,6.23,0,0,0-4.16,1.59L37.17,38.16a6.61,6.61,0,0,0,4.78,2A6.69,6.69,0,1,0,38.79,27.6,8.55,8.55,0,0,0,23,29.45a5.23,5.23,0,0,0-.7,0,5.29,5.29,0,1,0,3.78,9,8.61,8.61,0,0,0,5.2,1.77,8.5,8.5,0,0,0,4.42-1.24L42.25,50a6.26,6.26,0,1,0,5.32-3Zm-21-10.79-.89-.89-.67,1.07a3.3,3.3,0,1,1-1.66-4.83l1.18.44.16-1.25a6.56,6.56,0,0,1,12.68-1.37l.48,1.34,1.1-.9a4.69,4.69,0,1,1-1.06,6l-.73-1.22-.9,1.1a6.52,6.52,0,0,1-5.06,2.4A6.6,6.6,0,0,1,26.61,36.26Z"/></g></g></svg>