<svg xmlns="http://www.w3.org/2000/svg" viewBox="0 0 58.33 47.81"><defs><style>.cls-1{fill:#ff9800;}.cls-2{fill:#42a5f5;}</style></defs><title>Asset 253</title><g id="Layer_2" data-name="Layer 2"><g id="Layer_1-2" data-name="Layer 1"><path class="cls-1" d="M15.63,27.46a4.62,4.62,0,1,1,4.62-4.62A4.63,4.63,0,0,1,15.63,27.46Zm0-7.37a2.75,2.75,0,1,0,2.75,2.75A2.75,2.75,0,0,0,15.63,20.08Z"/><path class="cls-1" d="M27.62,27.46a4.62,4.62,0,1,1,4.62-4.62A4.63,4.63,0,0,1,27.62,27.46Zm0-7.37a2.75,2.75,0,1,0,2.75,2.75A2.75,2.75,0,0,0,27.62,20.08Z"/><path class="cls-1" d="M39.62,27.46a4.62,4.62,0,1,1,4.62-4.62A4.63,4.63,0,0,1,39.62,27.46Zm0-7.37a2.75,2.75,0,1,0,2.75,2.75A2.75,2.75,0,0,0,39.62,20.08Z"/><path class="cls-2" d="M56.47,47.81a2,2,0,0,1-1.09-.32L41.09,38H7.18A7.19,7.19,0,0,1,0,30.85V7.18A7.19,7.19,0,0,1,7.18,0h44a7.19,7.19,0,0,1,7.18,7.18v38.9a1.69,1.69,0,0,1-.93,1.5A2,2,0,0,1,56.47,47.81ZM7.18,2.11A5.08,5.08,0,0,0,2.11,7.18V30.85a5.08,5.08,0,0,0,5.07,5.07H41.72l14.51,9.6V7.18a5.08,5.08,0,0,0-5.07-5.07Z"/></g></g></svg>