<svg xmlns="http://www.w3.org/2000/svg" viewBox="0 0 76.38 49.27"><defs><style>.cls-1{fill:#ff9800;}.cls-2{fill:#fff;}.cls-3{fill:#42a5f5;}</style></defs><title>Asset 273</title><g id="Layer_2" data-name="Layer 2"><g id="Layer_1-2" data-name="Layer 1"><path class="cls-1" d="M7.3,26.57H5V23.28c0-3.46,3.93-6.15,7.31-6.15a8.28,8.28,0,0,1,5.52,2.3L16,21.23a5.86,5.86,0,0,0-3.78-1.6c-2.1,0-4.81,1.77-4.81,3.65v2H7.3Z"/><path class="cls-1" d="M12.27,17.78a6.15,6.15,0,1,1,6.15-6.15A6.15,6.15,0,0,1,12.27,17.78Zm0-9.79a3.65,3.65,0,1,0,3.65,3.65A3.65,3.65,0,0,0,12.27,8Z"/><path class="cls-1" d="M61.94,17.8h-2.5c0-1.88-2.71-3.65-4.81-3.65a5.63,5.63,0,0,0-4.43,2.39l-2.13-1.3a8.12,8.12,0,0,1,6.56-3.59C58,11.65,61.94,14.33,61.94,17.8Z"/><path class="cls-1" d="M54.63,12.29a6.15,6.15,0,1,1,6.15-6.15A6.15,6.15,0,0,1,54.63,12.29Zm0-9.79a3.65,3.65,0,1,0,3.65,3.65A3.65,3.65,0,0,0,54.63,2.5Z"/><path class="cls-2" d="M61,47.41A15.15,15.15,0,0,1,52.6,44.9l.58-.88-.58.88q-.48-.32-.94-.68L53,42.55q.39.31.81.58A13.11,13.11,0,1,0,52.7,22l-1.17,1L51,21.58a17.75,17.75,0,0,0-34.34,3.7l-.17,1.33-1.25-.47a9.52,9.52,0,0,0-3.32-.6,9.63,9.63,0,1,0,8.17,14.72l.71-1.13.95.94a17.88,17.88,0,0,0,12.53,5.21,17.69,17.69,0,0,0,5.79-1l.7,2a19.84,19.84,0,0,1-19.6-3.89,11.76,11.76,0,1,1-6.41-18.67,19.88,19.88,0,0,1,37.73-4.23A15.22,15.22,0,1,1,61,47.41Z"/><path class="cls-3" d="M61,47.6a15.33,15.33,0,0,1-8.47-2.54l.69-1-.69,1q-.49-.32-1-.68l1.53-2q.39.3.8.57h0a12.92,12.92,0,1,0-1.05-20.78l-1.37,1.12-.6-1.67a17.56,17.56,0,0,0-34,3.66l-.2,1.56-1.48-.55a9.33,9.33,0,0,0-3.25-.58,9.44,9.44,0,1,0,8,14.43l.83-1.33,1.11,1.11A17.69,17.69,0,0,0,34.29,45.1a17.51,17.51,0,0,0,5.73-1l.82,2.36a20,20,0,0,1-19.63-3.8,11.95,11.95,0,1,1-6.58-19.17,20.06,20.06,0,0,1,38-4.28A15.41,15.41,0,1,1,61,47.6Z"/><path class="cls-1" d="M46.69,39.84a6.51,6.51,0,1,1,6.51-6.51A6.51,6.51,0,0,1,46.69,39.84Zm0-10.51a4,4,0,1,0,4,4A4,4,0,0,0,46.69,29.33Z"/><path class="cls-1" d="M54.45,49.27H38.93V45.84c0-3.66,4.17-6.51,7.76-6.51s7.76,2.84,7.76,6.51Zm-13-2.5H51.95v-.93c0-2.12-2.94-4-5.26-4s-5.26,1.89-5.26,4Z"/></g></g></svg>