<svg xmlns="http://www.w3.org/2000/svg" viewBox="0 0 77.84 40.74"><defs><style>.cls-1{fill:#42a5f5;}.cls-2{fill:#ff9800;}</style></defs><title>Asset 254</title><g id="Layer_2" data-name="Layer 2"><g id="Layer_1-2" data-name="Layer 1"><path class="cls-1" d="M62.24,40.74a15.44,15.44,0,0,1-12.56-6.37,20.24,20.24,0,0,1-14.76,6.37A20.5,20.5,0,0,1,21.5,35.65a12,12,0,1,1-6.57-19.12A20.36,20.36,0,0,1,53.58,12.2a15.59,15.59,0,1,1,8.66,28.54Zm-12.3-10,.8,1.33a13.43,13.43,0,1,0,3-17.26l-1.2,1-.52-1.46A18.18,18.18,0,0,0,16.9,18.08l-.17,1.36L15.44,19a9.74,9.74,0,0,0-3.4-.61,9.86,9.86,0,1,0,8.37,15.07l.72-1.16,1,1a18.31,18.31,0,0,0,12.83,5.33,18.09,18.09,0,0,0,14-6.66Z"/><path class="cls-2" d="M27.21,11.62l-.48-1.52c-.16-.5-.26-1.05.43-1.27s.92.29,1.08.8l.48,1.52.47-.15c.55-.17,1.07-.22,1.27.42s-.25.91-.8,1.08l-.47.15.55,1.74.47-.15c.55-.17,1.07-.22,1.27.43s-.25.91-.8,1.08l-.47.15.48,1.52c.16.5.26,1.05-.42,1.27s-.92-.29-1.08-.8l-.48-1.52-1.47.47.48,1.52c.16.5.26,1.05-.42,1.27s-.92-.29-1.08-.8l-.48-1.52-.47.15c-.55.17-1.07.22-1.27-.42s.25-.91.8-1.08l.47-.15-.55-1.74-.47.15c-.55.17-1.07.22-1.27-.43s.25-.91.8-1.08l.47-.15L23.75,11c-.16-.5-.26-1.05.43-1.27s.92.29,1.08.8l.48,1.52Zm-1,2,.55,1.74,1.47-.47-.55-1.74Z"/><path class="cls-2" d="M45.31,17.73l-5.84-3.31L30.86,29.62l0,0,.47,5.92L36.67,33h0Zm-5-.34,2,1.16L35.85,30l-2-1.16Z"/></g></g></svg>