<svg xmlns="http://www.w3.org/2000/svg" viewBox="0 0 69.87 56.01"><defs><style>.cls-1{fill:#ff9800;}.cls-2{fill:#42a5f5;}</style></defs><title>Asset 255</title><g id="Layer_2" data-name="Layer 2"><g id="Layer_1-2" data-name="Layer 1"><path class="cls-1" d="M57.94,45.35c-.06.08-6.05,8.16-12.85,8.16-3.78,0-6.63-2.61-8.16-4.42h1.29a1.25,1.25,0,0,0,0-2.5H32.11a1.25,1.25,0,0,0,0,2.5H33.8c1.06,1.61,5,6.92,11.3,6.92,8,0,14.59-8.81,14.86-9.18Z"/><path class="cls-2" d="M64.92,26.89a29.95,29.95,0,0,0-59.57-.06A6.21,6.21,0,0,0,0,33V44.08a6.21,6.21,0,0,0,6.21,6.21h.56A6.21,6.21,0,0,0,13,44.08V33a6.22,6.22,0,0,0-4.91-6.07,27.25,27.25,0,0,1,54.14-.06A6.21,6.21,0,0,0,56.9,33V44.08a6.21,6.21,0,0,0,6.21,6.21h.56a6.21,6.21,0,0,0,6.21-6.21V33A6.22,6.22,0,0,0,64.92,26.89ZM10.47,33V44.08a3.71,3.71,0,0,1-3.71,3.71H6.21A3.71,3.71,0,0,1,2.5,44.08V33a3.71,3.71,0,0,1,3.71-3.71h.56A3.71,3.71,0,0,1,10.47,33Zm56.9,11.12a3.71,3.71,0,0,1-3.71,3.71H63.1a3.71,3.71,0,0,1-3.71-3.71V33a3.71,3.71,0,0,1,3.71-3.71h.56A3.71,3.71,0,0,1,67.37,33Z"/><path class="cls-1" d="M28.69,32.13a2,2,0,1,1,2-2A2,2,0,0,1,28.69,32.13Zm0-3.22a1.2,1.2,0,1,0,1.2,1.2A1.2,1.2,0,0,0,28.69,28.91Z"/><path class="cls-1" d="M33.92,32.13a2,2,0,1,1,2-2A2,2,0,0,1,33.92,32.13Zm0-3.22a1.2,1.2,0,1,0,1.2,1.2A1.2,1.2,0,0,0,33.92,28.91Z"/><path class="cls-1" d="M39.16,32.13a2,2,0,1,1,2-2A2,2,0,0,1,39.16,32.13Zm0-3.22a1.2,1.2,0,1,0,1.2,1.2A1.2,1.2,0,0,0,39.16,28.91Z"/><path class="cls-1" d="M46.51,41.43a1.27,1.27,0,0,1-.7-.21l-6.14-4.06H25a3.55,3.55,0,0,1-3.55-3.55V23.28A3.55,3.55,0,0,1,25,19.73h19.2a3.55,3.55,0,0,1,3.55,3.55v17a1.16,1.16,0,0,1-.62,1A1.28,1.28,0,0,1,46.51,41.43ZM25,21.48a1.8,1.8,0,0,0-1.8,1.8V33.61a1.8,1.8,0,0,0,1.8,1.8H40.2L46,39.24v-16a1.8,1.8,0,0,0-1.8-1.8Z"/></g></g></svg>