<svg xmlns="http://www.w3.org/2000/svg" viewBox="0 0 77.84 40.74"><defs><style>.cls-1{fill:#42a5f5;}.cls-2{fill:#ff9800;}</style></defs><title>Asset 256</title><g id="Layer_2" data-name="Layer 2"><g id="Layer_1-2" data-name="Layer 1"><path class="cls-1" d="M62.24,40.74a15.44,15.44,0,0,1-12.56-6.37,20.24,20.24,0,0,1-14.76,6.37A20.5,20.5,0,0,1,21.5,35.65a12,12,0,1,1-6.57-19.12A20.36,20.36,0,0,1,53.58,12.2a15.59,15.59,0,1,1,8.66,28.54Zm-12.3-10,.8,1.33a13.43,13.43,0,1,0,3-17.26l-1.2,1-.52-1.46A18.18,18.18,0,0,0,16.9,18.08l-.17,1.36L15.44,19a9.75,9.75,0,0,0-3.4-.61,9.86,9.86,0,1,0,8.37,15.07l.72-1.16,1,1a18.3,18.3,0,0,0,12.83,5.33,18.09,18.09,0,0,0,14-6.66Z"/><polygon class="cls-2" points="26.06 21.77 34.63 21.77 30.34 33.12 43.14 18.94 34.36 18.94 38.82 7.39 26.06 21.77"/></g></g></svg>