<svg xmlns="http://www.w3.org/2000/svg" viewBox="0 0 21.28 21.28"><defs><style>.cls-1{fill:#f0f0f0;}.cls-2{fill:#d80027;}.cls-3{fill:#0052b4;}.cls-4{fill:#fff;}</style></defs><title>Asset 272</title><g id="Layer_2" data-name="Layer 2"><g id="Layer_1-2" data-name="Layer 1"><circle class="cls-1" cx="10.64" cy="10.57" r="9.68"/><path class="cls-2" d="M10.22,10.57h10.1A9.69,9.69,0,0,0,20,8H10.22Z"/><path class="cls-2" d="M10.22,5.52H18.9A9.73,9.73,0,0,0,16.66,3H10.22Z"/><path class="cls-2" d="M10.64,20.26a9.64,9.64,0,0,0,6-2.11H4.61A9.64,9.64,0,0,0,10.64,20.26Z"/><path class="cls-2" d="M2.38,15.63H18.9A9.63,9.63,0,0,0,20,13.1H1.29A9.63,9.63,0,0,0,2.38,15.63Z"/><path class="cls-3" d="M5.44,2.4h.88L5.5,3l.31,1L5,3.37,4.17,4l.27-.83A9.74,9.74,0,0,0,2.57,5.22h.28l-.52.38L2.09,6l.25.77-.47-.34q-.17.37-.32.75L1.83,8h1L2,8.64l.31,1L1.52,9,1,9.37A9.78,9.78,0,0,0,1,10.57h9.68V.89A9.64,9.64,0,0,0,5.44,2.4Zm.38,7.2L5,9l-.82.6.31-1L3.67,8h1l.31-1,.31,1h1l-.82.6ZM5.5,5.82l.31,1L5,6.19l-.82.6.31-1-.82-.6h1l.31-1,.31,1h1ZM9.29,9.6,8.47,9l-.82.6.31-1L7.14,8h1l.31-1,.31,1h1L9,8.64ZM9,5.82l.31,1-.82-.6-.82.6.31-1-.82-.6h1l.31-1,.31,1h1ZM9,3l.31,1-.82-.6L7.65,4,8,3l-.82-.6h1l.31-1,.31,1h1Z"/><path class="cls-4" d="M10.64,21.28A10.64,10.64,0,1,1,21.28,10.64,10.65,10.65,0,0,1,10.64,21.28ZM10.64,1a9.64,9.64,0,1,0,9.64,9.64A9.65,9.65,0,0,0,10.64,1Z"/></g></g></svg>