<svg xmlns="http://www.w3.org/2000/svg" viewBox="0 0 21.28 21.28"><defs><style>.cls-1{fill:#d80027;}.cls-2{fill:#fff;}.cls-3{fill:#ffda44;}</style></defs><title>Asset 274</title><g id="Layer_2" data-name="Layer 2"><g id="Layer_1-2" data-name="Layer 1"><circle class="cls-1" cx="10.64" cy="10.64" r="10.14"/><path class="cls-2" d="M10.64,21.28A10.64,10.64,0,1,1,21.28,10.64,10.65,10.65,0,0,1,10.64,21.28ZM10.64,1a9.64,9.64,0,1,0,9.64,9.64A9.65,9.65,0,0,0,10.64,1Z"/><path class="cls-3" d="M.5,10.64a10.12,10.12,0,0,0,.6,3.44H20.18a10.18,10.18,0,0,0,0-6.88H1.1A10.12,10.12,0,0,0,.5,10.64Z"/><path class="cls-2" d="M10.64,21.28A10.64,10.64,0,1,1,21.28,10.64,10.65,10.65,0,0,1,10.64,21.28ZM10.64,1a9.64,9.64,0,1,0,9.64,9.64A9.65,9.65,0,0,0,10.64,1Z"/></g></g></svg>