<svg xmlns="http://www.w3.org/2000/svg" viewBox="0 0 21.28 21.28"><defs><style>.cls-1{fill:#fff;}.cls-2{fill:#fad91f;}.cls-3{fill:#fadb1e;}.cls-4{fill:#d81219;}.cls-5{fill:#fada1e;}.cls-6{fill:#d8131a;}.cls-7{fill:#d8141a;}.cls-8{fill:#fadb36;}</style></defs><title>Asset 271</title><g id="Layer_2" data-name="Layer 2"><g id="Layer_1-2" data-name="Layer 1"><path class="cls-1" d="M10.64,21.28A10.64,10.64,0,1,1,21.28,10.64,10.65,10.65,0,0,1,10.64,21.28ZM10.64,1a9.64,9.64,0,1,0,9.64,9.64A9.65,9.65,0,0,0,10.64,1Z"/><path class="cls-2" d="M1.14,11.74l-.08-.33q0-.75,0-1.5l.08-.32h19a3.63,3.63,0,0,1,.06.5c0,.52,0,1,0,1.55a.46.46,0,0,1,0,.11h-19Z"/><path class="cls-3" d="M4.74,3.13a9.12,9.12,0,0,1,3.7-1.79c.45-.1.91-.15,1.36-.23l.12,0h1.46l.75.11a9.46,9.46,0,0,1,4.48,2l0,0a.26.26,0,0,0,0,0h-.08l-.23,0H5A1.41,1.41,0,0,1,4.74,3.13Z"/><path class="cls-4" d="M1.15,9.59c.09-.5.17-1,.28-1.49a5.47,5.47,0,0,1,.21-.63H19.69c.13.43.27.85.37,1.28a7.87,7.87,0,0,1,.12.85h-19Z"/><path class="cls-4" d="M1.14,11.74h19c-.1.54-.2,1.07-.31,1.61a4.08,4.08,0,0,1-.18.51H1.63c-.14-.5-.28-1-.41-1.49A4.91,4.91,0,0,1,1.14,11.74Z"/><path class="cls-5" d="M19.69,7.46H1.63c.14-.34.25-.69.41-1s.44-.76.66-1.14H18.39l.22,0A7.79,7.79,0,0,1,19.69,7.46Z"/><path class="cls-3" d="M1.63,13.86H19.69c-.13.33-.24.66-.4,1s-.45.78-.67,1.18l-.2,0H2.9l-.2,0A8.45,8.45,0,0,1,1.63,13.86Z"/><path class="cls-6" d="M2.7,16l.2,0H18.41l.2,0a8.67,8.67,0,0,1-1.95,2.12h-12a8,8,0,0,1-1.43-1.41C3,16.49,2.87,16.24,2.7,16Z"/><path class="cls-7" d="M18.61,5.32l-.22,0H2.71A8.59,8.59,0,0,1,4.65,3.2h12c.4.37.82.73,1.19,1.13A11.88,11.88,0,0,1,18.61,5.32Z"/><path class="cls-3" d="M16.58,18.2a9.14,9.14,0,0,1-2.79,1.53,9.31,9.31,0,0,1-3.47.52,9.51,9.51,0,0,1-5.56-2l0,0a1,1,0,0,1,.19,0H16.39A1,1,0,0,1,16.58,18.2Z"/><path class="cls-8" d="M16.58,18.2a1,1,0,0,0-.19,0H4.93a1,1,0,0,0-.19,0l-.09-.07h12Z"/><path class="cls-8" d="M16.66,3.2h0a.26.26,0,0,1,0,0Z"/><path class="cls-8" d="M16.54,3.2H4.65l.08-.07a1.41,1.41,0,0,0,.23,0H16.31Z"/><path class="cls-1" d="M10.64,21.28A10.64,10.64,0,1,1,21.28,10.64,10.65,10.65,0,0,1,10.64,21.28ZM10.64,1a9.64,9.64,0,1,0,9.64,9.64A9.65,9.65,0,0,0,10.64,1Z"/></g></g></svg>