<?xml version="1.0" standalone="no"?>
<!DOCTYPE svg PUBLIC "-//W3C//DTD SVG 20010904//EN"
 "http://www.w3.org/TR/2001/REC-SVG-20010904/DTD/svg10.dtd">
<svg version="1.0" xmlns="http://www.w3.org/2000/svg"
 width="300.000000pt" height="300.000000pt" viewBox="0 0 300.000000 300.000000"
 preserveAspectRatio="xMidYMid meet">
<metadata>
Created by potrace 1.11, written by Peter Selinger 2001-2013
</metadata>
<g transform="translate(0.000000,300.000000) scale(0.100000,-0.100000)"
fill="#000000" stroke="none">
<path d="M1190 2225 c-233 -51 -428 -202 -523 -405 -40 -86 -66 -177 -72 -252
-1 -17 -17 -18 -62 -3 -193 66 -408 -27 -497 -214 -28 -60 -31 -75 -30 -161 1
-129 25 -190 108 -275 72 -73 117 -98 212 -118 168 -35 340 43 434 195 l17 28
24 -26 c44 -48 143 -116 223 -155 113 -55 203 -73 345 -67 139 6 248 39 363
111 66 41 165 131 201 181 13 18 16 16 49 -35 87 -133 208 -218 355 -250 51
-11 160 -14 203 -6 89 18 173 55 247 111 206 152 269 437 150 676 -38 77 -140
182 -215 223 -120 65 -270 87 -397 57 -66 -15 -159 -60 -218 -106 -26 -20 -49
-35 -50 -33 -2 2 -12 26 -22 53 -44 120 -132 241 -234 323 -74 60 -219 128
-310 146 -89 18 -225 19 -301 2z m235 -159 c212 -28 411 -201 465 -406 20 -73
21 -82 22 -157 2 -267 -188 -498 -459 -559 -249 -55 -517 75 -631 308 -48 98
-62 162 -58 278 9 280 220 499 521 543 27 4 79 1 140 -7z m1143 -396 c216 -71
322 -311 228 -518 -37 -80 -122 -161 -203 -193 -64 -25 -186 -33 -238 -17
-113 36 -206 115 -253 216 -24 50 -27 69 -27 157 0 89 3 106 27 155 48 98 156
185 261 211 52 12 148 7 205 -11z m-2084 -261 c56 -16 129 -92 144 -151 18
-71 14 -119 -13 -174 -41 -83 -128 -134 -222 -130 -211 10 -303 267 -146 406
25 22 60 44 77 49 44 13 114 13 160 0z"/>
</g>
</svg>
