<svg xmlns="http://www.w3.org/2000/svg" viewBox="0 0 31.97 31.97"><defs><style>.cls-1{fill:#42a5f5;}</style></defs><title>Asset 152</title><g id="Layer_2" data-name="Layer 2"><g id="Layer_1-2" data-name="Layer 1"><path class="cls-1" d="M16,19.32A3.34,3.34,0,0,0,19.32,16a3.3,3.3,0,0,0-.43-1.62,3.4,3.4,0,0,0-.2-.32,3.32,3.32,0,0,0-5.4,0,3.49,3.49,0,0,0-.2.32A3.3,3.3,0,0,0,12.65,16,3.34,3.34,0,0,0,16,19.32Z"/><polygon class="cls-1" points="23.26 11.91 23.26 9.12 23.26 8.7 22.84 8.7 20.05 8.71 20.06 11.92 23.26 11.91"/><path class="cls-1" d="M16,0A16,16,0,1,0,32,16,16,16,0,0,0,16,0Zm9.47,14v7.75a3.66,3.66,0,0,1-3.66,3.66H10.18a3.66,3.66,0,0,1-3.66-3.66V10.18a3.66,3.66,0,0,1,3.66-3.66H21.79a3.66,3.66,0,0,1,3.66,3.66Z"/><path class="cls-1" d="M21,14.58a5.11,5.11,0,0,1,.2,1.41,5.18,5.18,0,1,1-10.35,0A5.24,5.24,0,0,1,11.19,14H8.36v7.75a1.82,1.82,0,0,0,1.81,1.81H21.79a1.82,1.82,0,0,0,1.82-1.81V14H20.78A5.25,5.25,0,0,1,21,14.58Z"/></g></g></svg>