<svg xmlns="http://www.w3.org/2000/svg" viewBox="0 0 32 32"><defs><style>.cls-1{fill:#42a5f5;}</style></defs><title>Asset 154</title><g id="Layer_2" data-name="Layer 2"><g id="Layer_1-2" data-name="Layer 1"><path class="cls-1" d="M16,0A16,16,0,1,0,32,16,16,16,0,0,0,16,0ZM11.36,14.64v10H6.93V12h4.42Zm-2.21-4.5a2.21,2.21,0,1,1,2.21-2.21A2.21,2.21,0,0,1,9.14,10.13Zm16.74,7.59v6.94H22.09V18.51c0-1.47-.16-3.36-2.17-3.36s-2.35,1.6-2.35,3.25v6.26H13.88V12H17.4v1.7h.05c.52-1,1.81-1.7,3.72-1.7,3.22,0,4.31,1.5,4.61,3.88a14.69,14.69,0,0,1,.1,1.81Z"/></g></g></svg>