<svg xmlns="http://www.w3.org/2000/svg" viewBox="0 0 32 32"><defs><style>.cls-1{fill:#42a5f5;}</style></defs><title>Asset 153</title><g id="Layer_2" data-name="Layer 2"><g id="Layer_1-2" data-name="Layer 1"><path class="cls-1" d="M16,0A16,16,0,1,0,32,16,16,16,0,0,0,16,0Zm7.54,13.1c0,.16,0,.33,0,.5a10.52,10.52,0,0,1-.26,2.31,10.82,10.82,0,0,1-10.8,8.58,11.15,11.15,0,0,1-6-1.72,8,8,0,0,0,.93.05,7.88,7.88,0,0,0,4.83-1.64,3.89,3.89,0,0,1-3.63-2.66,3.89,3.89,0,0,0,.73.07,4,4,0,0,0,1-.13,3.88,3.88,0,0,1-2.85-2.37,3.76,3.76,0,0,1-.27-1.39v0A3.93,3.93,0,0,0,9,15.13a3.81,3.81,0,0,1-1.73-3.19A3.77,3.77,0,0,1,7.84,10a11.1,11.1,0,0,0,8,4,3.83,3.83,0,0,1,3.79-4.7,3.91,3.91,0,0,1,2.84,1.21A7.85,7.85,0,0,0,25,9.6a3.85,3.85,0,0,1-1.71,2.12,7.84,7.84,0,0,0,2.23-.6A7.81,7.81,0,0,1,23.54,13.1Z"/></g></g></svg>