<svg xmlns="http://www.w3.org/2000/svg" width="146.001" height="46" viewBox="0 0 146.001 46">
  <g id="Vector_Smart_Object" data-name="Vector Smart Object" transform="translate(-1094 -8007)">
    <g id="Vector_Smart_Object-2" data-name="Vector Smart Object" transform="translate(852.459 7756.86)">
      <g id="Group_1" data-name="Group 1">
        <path id="Path_1" data-name="Path 1" d="M290.384,268.545A2.573,2.573,0,0,1,289,268.9a2.713,2.713,0,0,1-1.437-.387,3.257,3.257,0,0,1-1.07-1.077,5.516,5.516,0,0,1-.665-1.623,8.5,8.5,0,0,1-.23-2.037,8.327,8.327,0,0,1,.237-2.045,5.432,5.432,0,0,1,.678-1.624,3.369,3.369,0,0,1,1.071-1.07,2.652,2.652,0,0,1,1.416-.387,3.075,3.075,0,0,1,1.341.291,2.454,2.454,0,0,1,1,.884l-.759.843a2,2,0,0,0-.692-.656,1.725,1.725,0,0,0-.84-.214,1.513,1.513,0,0,0-.962.318,2.4,2.4,0,0,0-.671.857,4.917,4.917,0,0,0-.4,1.264,8.366,8.366,0,0,0-.135,1.541,8.246,8.246,0,0,0,.135,1.533,4.87,4.87,0,0,0,.407,1.264,2.426,2.426,0,0,0,.685.864,1.544,1.544,0,0,0,.969.317,1.484,1.484,0,0,0,.888-.276,2.13,2.13,0,0,0,.617-.677l.731.815A2.884,2.884,0,0,1,290.384,268.545Z"/>
        <path id="Path_2" data-name="Path 2" d="M295.316,268.662v-9.781h4.038v1.105h-2.859v3.081h2.67V264.1h-2.67v3.44h2.995v1.119Z"/>
        <path id="Path_3" data-name="Path 3" d="M307.729,268.662,306.1,264.3h-1.111v4.365H303.8v-9.781h2.486a3.363,3.363,0,0,1,1,.145,2.1,2.1,0,0,1,1.379,1.292,3.313,3.313,0,0,1,.2,1.229,3.218,3.218,0,0,1-.151,1.036,2.6,2.6,0,0,1-.391.753,2.034,2.034,0,0,1-.527.49,1.683,1.683,0,0,1-.558.235l1.8,4.6Zm-.082-7.066a2.106,2.106,0,0,0-.136-.818,1.432,1.432,0,0,0-.352-.513,1.215,1.215,0,0,0-.5-.27,2.165,2.165,0,0,0-.569-.077h-1.1v3.412h1.124a1.448,1.448,0,0,0,1.112-.45A1.817,1.817,0,0,0,307.648,261.6Z"/>
        <path id="Path_4" data-name="Path 4" d="M315.088,259.945v8.717h-1.22v-8.717h-1.83v-1.064h4.879v1.064Z"/>
        <path id="Path_5" data-name="Path 5" d="M320.671,268.662v-9.781h1.22v9.781Z"/>
        <path id="Path_6" data-name="Path 6" d="M327.934,260.014v3.15h2.616v1.078h-2.616v4.421h-1.22v-9.781h4.038v1.133Z"/>
        <path id="Path_7" data-name="Path 7" d="M334.914,268.662v-9.781h1.22v9.781Z"/>
        <path id="Path_8" data-name="Path 8" d="M345.321,268.545a2.572,2.572,0,0,1-1.382.353,2.711,2.711,0,0,1-1.437-.387,3.264,3.264,0,0,1-1.071-1.077,5.515,5.515,0,0,1-.664-1.623,8.5,8.5,0,0,1-.23-2.037,8.329,8.329,0,0,1,.237-2.045,5.431,5.431,0,0,1,.678-1.624,3.368,3.368,0,0,1,1.071-1.07,2.651,2.651,0,0,1,1.416-.387,3.075,3.075,0,0,1,1.342.291,2.457,2.457,0,0,1,1,.884l-.759.843a2,2,0,0,0-.691-.656,1.726,1.726,0,0,0-.84-.214,1.512,1.512,0,0,0-.962.318,2.412,2.412,0,0,0-.672.857,4.939,4.939,0,0,0-.4,1.264,8.364,8.364,0,0,0-.136,1.541,8.244,8.244,0,0,0,.136,1.533,4.872,4.872,0,0,0,.407,1.264,2.426,2.426,0,0,0,.685.864,1.543,1.543,0,0,0,.969.317,1.485,1.485,0,0,0,.888-.276,2.123,2.123,0,0,0,.616-.677l.732.815A2.886,2.886,0,0,1,345.321,268.545Z"/>
        <path id="Path_9" data-name="Path 9" d="M354.252,268.662l-.542-2.293h-2.778l-.556,2.293h-1.233l2.412-9.781h1.613l2.358,9.781Zm-1.884-8.62h-.054l-1.22,5.346h2.453Z"/>
        <path id="Path_10" data-name="Path 10" d="M365.2,263.786a5.923,5.923,0,0,1-.949,3.627,3.144,3.144,0,0,1-2.656,1.25h-2.2v-9.781h2.209a3.118,3.118,0,0,1,2.649,1.258A6.01,6.01,0,0,1,365.2,263.786Zm-1.22,0a6.888,6.888,0,0,0-.183-1.685,3.777,3.777,0,0,0-.5-1.188,2.127,2.127,0,0,0-.756-.7,1.954,1.954,0,0,0-.938-.235h-.985v7.6h.985a1.955,1.955,0,0,0,.938-.235,2.127,2.127,0,0,0,.756-.7,3.78,3.78,0,0,0,.5-1.181A6.733,6.733,0,0,0,363.982,263.786Z"/>
        <path id="Path_11" data-name="Path 11" d="M375.759,263.758a9.128,9.128,0,0,1-.223,2.093,5.306,5.306,0,0,1-.651,1.623,3.229,3.229,0,0,1-1.03,1.05,2.555,2.555,0,0,1-1.375.373,2.591,2.591,0,0,1-1.382-.373,3.206,3.206,0,0,1-1.037-1.05,5.306,5.306,0,0,1-.65-1.623,9.066,9.066,0,0,1-.224-2.093,9.374,9.374,0,0,1,.217-2.093,5.229,5.229,0,0,1,.637-1.617,3.088,3.088,0,0,1,1.036-1.036,2.7,2.7,0,0,1,1.4-.366,2.6,2.6,0,0,1,1.375.366,3.2,3.2,0,0,1,1.03,1.036,5.237,5.237,0,0,1,.651,1.617A9.141,9.141,0,0,1,375.759,263.758Zm-1.287,0a8.975,8.975,0,0,0-.129-1.561,5.1,5.1,0,0,0-.379-1.271,2.4,2.4,0,0,0-.623-.849,1.306,1.306,0,0,0-.861-.311,1.349,1.349,0,0,0-.881.311,2.351,2.351,0,0,0-.63.849,4.931,4.931,0,0,0-.373,1.271,10.056,10.056,0,0,0,0,3.123,4.92,4.92,0,0,0,.373,1.27,2.346,2.346,0,0,0,.63.849,1.349,1.349,0,0,0,.881.311,1.307,1.307,0,0,0,.861-.311,2.4,2.4,0,0,0,.623-.849,5.087,5.087,0,0,0,.379-1.27A8.982,8.982,0,0,0,374.471,263.758Z"/>
        <path id="Path_12" data-name="Path 12" d="M286.269,286.9V273.987h3.077V286.9Z"/>
        <path id="Path_13" data-name="Path 13" d="M298.648,277.342a2.784,2.784,0,0,0-1.029-.811,2.855,2.855,0,0,0-1.226-.3,3.576,3.576,0,0,0-.617.054,1.591,1.591,0,0,0-.563.21,1.4,1.4,0,0,0-.421.4,1.08,1.08,0,0,0-.17.629,1.034,1.034,0,0,0,.134.548,1.2,1.2,0,0,0,.394.382,3.481,3.481,0,0,0,.617.3q.358.137.8.283.644.218,1.342.483a4.987,4.987,0,0,1,1.27.7,3.67,3.67,0,0,1,.948,1.085,3.174,3.174,0,0,1,.375,1.614,4.28,4.28,0,0,1-.4,1.924,3.812,3.812,0,0,1-1.082,1.341,4.593,4.593,0,0,1-1.556.784,6.43,6.43,0,0,1-1.807.255,7.348,7.348,0,0,1-2.63-.483,5.553,5.553,0,0,1-2.11-1.377l2-2.079a3.708,3.708,0,0,0,1.225.976,3.277,3.277,0,0,0,1.512.392,2.957,2.957,0,0,0,.662-.073,1.619,1.619,0,0,0,.564-.237,1.184,1.184,0,0,0,.384-.438,1.4,1.4,0,0,0,.143-.656,1.051,1.051,0,0,0-.179-.62,1.744,1.744,0,0,0-.51-.465,4.1,4.1,0,0,0-.823-.383q-.492-.172-1.118-.374a10.576,10.576,0,0,1-1.19-.475,3.977,3.977,0,0,1-1.038-.7,3.25,3.25,0,0,1-.733-1.039,3.584,3.584,0,0,1-.277-1.486,3.71,3.71,0,0,1,.429-1.842,3.774,3.774,0,0,1,1.127-1.259,4.807,4.807,0,0,1,1.574-.721,7.039,7.039,0,0,1,1.772-.228,6.478,6.478,0,0,1,2.191.4,5.628,5.628,0,0,1,1.959,1.185Z"/>
        <path id="Path_14" data-name="Path 14" d="M315.731,280.388a7.322,7.322,0,0,1-.519,2.8,6.268,6.268,0,0,1-3.631,3.565,7.57,7.57,0,0,1-2.755.492,7.492,7.492,0,0,1-2.746-.492,6.285,6.285,0,0,1-3.623-3.565,7.311,7.311,0,0,1-.519-2.8,7.227,7.227,0,0,1,.519-2.8,6.131,6.131,0,0,1,1.44-2.125,6.39,6.39,0,0,1,2.183-1.349,7.724,7.724,0,0,1,2.746-.475,7.8,7.8,0,0,1,2.755.475,6.374,6.374,0,0,1,2.191,1.349,6.13,6.13,0,0,1,1.44,2.125A7.238,7.238,0,0,1,315.731,280.388Zm-3.274,0a4.507,4.507,0,0,0-.268-1.568,3.735,3.735,0,0,0-.742-1.249,3.42,3.42,0,0,0-1.145-.821,3.565,3.565,0,0,0-1.476-.3,3.49,3.49,0,0,0-2.612,1.122,3.547,3.547,0,0,0-.742,1.249,4.633,4.633,0,0,0-.26,1.568A4.707,4.707,0,0,0,305.48,282a3.837,3.837,0,0,0,.743,1.267,3.382,3.382,0,0,0,1.136.83,3.544,3.544,0,0,0,4.078-.83,3.747,3.747,0,0,0,.751-1.267A4.694,4.694,0,0,0,312.457,280.388Z"/>
        <path id="Path_15" data-name="Path 15" d="M322.135,286.9v-2.549l4.937-4.551a4.776,4.776,0,0,0,.752-.929,2,2,0,0,0,.286-1.055,1.509,1.509,0,0,0-.429-1.12,1.7,1.7,0,0,0-2.37.11,2.454,2.454,0,0,0-.564,1.413l-2.88-.4a4.669,4.669,0,0,1,.527-1.754,4.49,4.49,0,0,1,2.54-2.137,5.4,5.4,0,0,1,1.762-.285,6.111,6.111,0,0,1,1.7.238,4.394,4.394,0,0,1,1.467.729,3.635,3.635,0,0,1,1.028,1.24,3.78,3.78,0,0,1,.385,1.751,4.072,4.072,0,0,1-.179,1.249,4.2,4.2,0,0,1-.492,1.03,5.856,5.856,0,0,1-.716.885q-.4.41-.832.812l-2.934,2.662h5.17V286.9Z"/>
        <path id="Path_16" data-name="Path 16" d="M337.949,286.9H334.46l5.134-10.285H333.6v-2.626H342.8v2.444Z"/>
        <path id="Path_17" data-name="Path 17" d="M354.764,280.406a12.293,12.293,0,0,1-.268,2.608,6.71,6.71,0,0,1-.859,2.179,4.48,4.48,0,0,1-1.529,1.5,4.409,4.409,0,0,1-2.281.556,4.456,4.456,0,0,1-2.29-.556,4.531,4.531,0,0,1-1.547-1.5,6.591,6.591,0,0,1-.868-2.179,12.3,12.3,0,0,1-.268-2.608,12.173,12.173,0,0,1,.268-2.6,6.4,6.4,0,0,1,.868-2.152,4.326,4.326,0,0,1,3.837-2.015,4.265,4.265,0,0,1,3.81,2.015,6.513,6.513,0,0,1,.859,2.152A12.169,12.169,0,0,1,354.764,280.406Zm-3.077,0q0-.6-.071-1.331a6.708,6.708,0,0,0-.269-1.358,2.956,2.956,0,0,0-.564-1.058,1.2,1.2,0,0,0-.956-.428,1.226,1.226,0,0,0-.966.428,2.991,2.991,0,0,0-.581,1.058,6.292,6.292,0,0,0-.277,1.358q-.072.73-.072,1.331,0,.62.072,1.359a6.3,6.3,0,0,0,.277,1.368,2.991,2.991,0,0,0,.581,1.058,1.226,1.226,0,0,0,.966.428,1.2,1.2,0,0,0,.956-.428,2.956,2.956,0,0,0,.564-1.058,6.718,6.718,0,0,0,.269-1.368Q351.687,281.026,351.687,280.406Z"/>
        <path id="Path_18" data-name="Path 18" d="M366.321,280.406a12.3,12.3,0,0,1-.269,2.608,6.712,6.712,0,0,1-.859,2.179,4.474,4.474,0,0,1-1.529,1.5,4.407,4.407,0,0,1-2.28.556,4.458,4.458,0,0,1-2.29-.556,4.531,4.531,0,0,1-1.547-1.5,6.6,6.6,0,0,1-.868-2.179,12.3,12.3,0,0,1-.268-2.608,12.173,12.173,0,0,1,.268-2.6,6.411,6.411,0,0,1,.868-2.152,4.326,4.326,0,0,1,3.837-2.015,4.266,4.266,0,0,1,3.81,2.015,6.515,6.515,0,0,1,.859,2.152A12.173,12.173,0,0,1,366.321,280.406Zm-3.077,0q0-.6-.072-1.331a6.75,6.75,0,0,0-.268-1.358,2.964,2.964,0,0,0-.564-1.058,1.2,1.2,0,0,0-.957-.428,1.226,1.226,0,0,0-.966.428,2.983,2.983,0,0,0-.581,1.058,6.321,6.321,0,0,0-.278,1.358q-.072.73-.072,1.331,0,.62.072,1.359a6.333,6.333,0,0,0,.278,1.368,2.982,2.982,0,0,0,.581,1.058,1.226,1.226,0,0,0,.966.428,1.2,1.2,0,0,0,.957-.428,2.964,2.964,0,0,0,.564-1.058,6.76,6.76,0,0,0,.268-1.368Q363.244,281.026,363.244,280.406Z"/>
        <path id="Path_19" data-name="Path 19" d="M372.206,286.9v-9.482l-2.361,1.86-1.556-2.169,4.167-3.119h2.738V286.9Z"/>
      </g>
      <path id="Path_20" data-name="Path 20" d="M386,296.14H243.077a1.553,1.553,0,0,1-1.536-1.566V251.706a1.553,1.553,0,0,1,1.536-1.567H386a1.553,1.553,0,0,1,1.536,1.567v42.867A1.553,1.553,0,0,1,386,296.14ZM243.08,251.705l0,42.868H386V251.706H243.08Zm0-.782v.783h0Z"/>
      <path id="Path_21" data-name="Path 21" d="M275,267.751a11.829,11.829,0,0,0-10.217-7.418c-.08-.008-.168-.008-.256-.016H264.5c-.048,0-.1-.008-.144-.008h-.024c-.088,0-.176-.008-.272-.008a11.54,11.54,0,0,0-4.521.921,11.837,11.837,0,0,0-6.406,6.53,12.159,12.159,0,0,0,0,9.234,11.812,11.812,0,0,0,10.943,7.459,1.361,1.361,0,0,0,.184-.008c.032,0,.072.008.1.008a.059.059,0,0,0,.04-.008c.072,0,.135-.008.208-.008h.08a.181.181,0,0,0,.064-.008,11.555,11.555,0,0,0,3.85-.9,11.841,11.841,0,0,0,6.407-6.531,12.2,12.2,0,0,0,0-9.234c-.008,0-.008,0-.008-.008Zm-15.066-4.943a12.81,12.81,0,0,0-2.045,4.454h-2.772A10.285,10.285,0,0,1,259.936,262.808Zm-5.536,6.075h3.147a21.278,21.278,0,0,0-.28,3.5,19.839,19.839,0,0,0,.3,3.5H254.4A10.531,10.531,0,0,1,254.4,268.883Zm.719,8.608h2.82a13.187,13.187,0,0,0,2.164,4.544A10.275,10.275,0,0,1,255.119,277.49Zm8.443,5.228c-1.653-.5-3.123-2.516-3.962-5.228h3.962v5.228Zm0-6.84h-4.37a17.776,17.776,0,0,1-.343-3.5,20.288,20.288,0,0,1,.3-3.5h4.409Zm0-8.607h-4.034c.807-2.8,2.277-4.78,4.034-5.236Zm9.45-.008h-2.2a13.147,13.147,0,0,0-1.725-4.006A10.346,10.346,0,0,1,273.013,267.263Zm-7.868-5.236c1.757.464,3.219,2.443,4.034,5.236h-4.034Zm0,6.856h4.41a19.505,19.505,0,0,1,.3,3.5,17.737,17.737,0,0,1-.344,3.5h-4.37Zm0,13.836V277.49h3.962C268.268,280.2,266.8,282.222,265.144,282.718Zm3.786-1.132a13.6,13.6,0,0,0,1.845-4.1h2.237A10.229,10.229,0,0,1,268.931,281.586Zm4.8-5.708h-2.6a19.718,19.718,0,0,0,.3-3.5,21.268,21.268,0,0,0-.279-3.5h2.572A10.536,10.536,0,0,1,273.732,275.878Z"/>
    </g>
    <path id="Color_Overlay" data-name="Color Overlay" d="M1095.536,8053a1.552,1.552,0,0,1-1.536-1.566v-42.866a1.554,1.554,0,0,1,1.536-1.568h142.928a1.556,1.556,0,0,1,1.538,1.568v42.866a1.554,1.554,0,0,1-1.538,1.566Zm0-1.566h142.928v-42.866l-142.926,0Zm116.018-7.886a4.53,4.53,0,0,1-1.548-1.5,6.545,6.545,0,0,1-.867-2.179,12.738,12.738,0,0,1,0-5.206,6.352,6.352,0,0,1,.867-2.15,4.323,4.323,0,0,1,3.838-2.015,4.262,4.262,0,0,1,3.81,2.015,6.512,6.512,0,0,1,.859,2.15,12.738,12.738,0,0,1,0,5.206,6.711,6.711,0,0,1-.859,2.179,4.476,4.476,0,0,1-1.53,1.5,4.394,4.394,0,0,1-2.28.556A4.442,4.442,0,0,1,1211.553,8043.548Zm1.324-10.028a3,3,0,0,0-.582,1.057,6.426,6.426,0,0,0-.277,1.358c-.047.487-.071.932-.071,1.332s.024.867.071,1.358a6.418,6.418,0,0,0,.277,1.368,3.006,3.006,0,0,0,.582,1.059,1.225,1.225,0,0,0,.966.426,1.2,1.2,0,0,0,.956-.426,2.978,2.978,0,0,0,.564-1.059,6.675,6.675,0,0,0,.269-1.368c.048-.491.071-.946.071-1.358s-.022-.845-.071-1.332a6.683,6.683,0,0,0-.269-1.358,2.967,2.967,0,0,0-.564-1.057,1.2,1.2,0,0,0-.956-.429A1.227,1.227,0,0,0,1212.877,8033.52ZM1200,8043.548a4.53,4.53,0,0,1-1.548-1.5,6.545,6.545,0,0,1-.867-2.179,12.738,12.738,0,0,1,0-5.206,6.352,6.352,0,0,1,.867-2.15,4.323,4.323,0,0,1,3.838-2.015,4.262,4.262,0,0,1,3.81,2.015,6.512,6.512,0,0,1,.859,2.15,12.738,12.738,0,0,1,0,5.206,6.711,6.711,0,0,1-.859,2.179,4.477,4.477,0,0,1-1.53,1.5,4.975,4.975,0,0,1-4.57,0Zm1.324-10.028a2.994,2.994,0,0,0-.582,1.057,6.291,6.291,0,0,0-.277,1.358c-.047.487-.071.932-.071,1.332s.024.867.071,1.358a6.286,6.286,0,0,0,.277,1.368,3.006,3.006,0,0,0,.582,1.059,1.223,1.223,0,0,0,.966.426,1.2,1.2,0,0,0,.956-.426,2.978,2.978,0,0,0,.564-1.059,6.675,6.675,0,0,0,.269-1.368c.047-.491.071-.946.071-1.358s-.024-.845-.071-1.332a6.683,6.683,0,0,0-.269-1.358,2.967,2.967,0,0,0-.564-1.057,1.2,1.2,0,0,0-.956-.429A1.225,1.225,0,0,0,1201.321,8033.52Zm-42.781,10.093a6.276,6.276,0,0,1-3.622-3.565,7.289,7.289,0,0,1-.519-2.8,7.2,7.2,0,0,1,.519-2.8,6.13,6.13,0,0,1,1.439-2.125,6.37,6.37,0,0,1,2.183-1.348,8.2,8.2,0,0,1,5.5,0,6.348,6.348,0,0,1,2.191,1.348,6.1,6.1,0,0,1,1.439,2.125,7.2,7.2,0,0,1,.519,2.8,7.289,7.289,0,0,1-.519,2.8,6.26,6.26,0,0,1-3.63,3.565,7.947,7.947,0,0,1-5.5,0Zm1.279-10a3.484,3.484,0,0,0-1.888,2.069,4.945,4.945,0,0,0,.008,3.181,3.851,3.851,0,0,0,.744,1.267,3.35,3.35,0,0,0,1.136.831,3.729,3.729,0,0,0,2.935,0,3.463,3.463,0,0,0,1.144-.831,3.729,3.729,0,0,0,.75-1.267,4.656,4.656,0,0,0,.269-1.613,4.494,4.494,0,0,0-.269-1.568,3.7,3.7,0,0,0-.742-1.249,3.434,3.434,0,0,0-1.144-.82,3.571,3.571,0,0,0-1.475-.3A3.506,3.506,0,0,0,1159.819,8033.61Zm-14.329,9.992a5.54,5.54,0,0,1-2.11-1.376l2-2.08a3.707,3.707,0,0,0,1.225.978,3.291,3.291,0,0,0,1.512.392,2.9,2.9,0,0,0,.663-.075,1.611,1.611,0,0,0,.564-.236,1.192,1.192,0,0,0,.384-.439,1.4,1.4,0,0,0,.143-.655,1.05,1.05,0,0,0-.18-.62,1.757,1.757,0,0,0-.509-.465,4.233,4.233,0,0,0-.823-.384c-.329-.115-.7-.238-1.12-.374a10.826,10.826,0,0,1-1.188-.473,4.017,4.017,0,0,1-1.039-.7,3.265,3.265,0,0,1-.734-1.039,3.59,3.59,0,0,1-.275-1.485,3.7,3.7,0,0,1,.428-1.841,3.741,3.741,0,0,1,1.128-1.259,4.8,4.8,0,0,1,1.572-.721,7.024,7.024,0,0,1,1.772-.229,6.483,6.483,0,0,1,2.191.4,5.613,5.613,0,0,1,1.958,1.184l-1.948,2.1a3.048,3.048,0,0,0-2.255-1.112,3.54,3.54,0,0,0-.616.055,1.556,1.556,0,0,0-.564.21,1.393,1.393,0,0,0-.42.4,1.068,1.068,0,0,0-.17.628,1.033,1.033,0,0,0,.133.548,1.189,1.189,0,0,0,.394.382,3.478,3.478,0,0,0,.616.3q.358.136.806.281c.428.148.875.308,1.342.485a4.972,4.972,0,0,1,1.269.7,3.64,3.64,0,0,1,.948,1.085,3.167,3.167,0,0,1,.376,1.613,4.3,4.3,0,0,1-.4,1.924,3.8,3.8,0,0,1-1.083,1.34,4.56,4.56,0,0,1-1.556.784,6.437,6.437,0,0,1-1.807.257A7.315,7.315,0,0,1,1145.49,8043.6Zm79.176.155v-9.482l-2.363,1.861-1.556-2.171,4.167-3.118h2.739v12.91Zm-37.745,0,5.133-10.285h-5.992v-2.625h9.194v2.443l-4.846,10.467Zm-12.326,0v-2.548l4.938-4.551a4.825,4.825,0,0,0,.752-.928,2.005,2.005,0,0,0,.285-1.055,1.5,1.5,0,0,0-.428-1.12,1.7,1.7,0,0,0-2.371.109,2.464,2.464,0,0,0-.564,1.413l-2.88-.4a4.723,4.723,0,0,1,.527-1.754,4.532,4.532,0,0,1,1.065-1.312,4.594,4.594,0,0,1,1.475-.824,5.406,5.406,0,0,1,1.762-.285,6.129,6.129,0,0,1,1.7.236,4.39,4.39,0,0,1,1.467.729,3.642,3.642,0,0,1,1.029,1.239,3.8,3.8,0,0,1,.384,1.75,4.08,4.08,0,0,1-.18,1.251,4.194,4.194,0,0,1-.491,1.029,5.763,5.763,0,0,1-.715.885q-.4.409-.833.813l-2.932,2.662h5.17v2.662Zm-35.867,0v-12.91h3.078v12.91Zm-22.011-2.459c-.063.006-.119.006-.184.006a11.81,11.81,0,0,1-10.942-7.458,12.159,12.159,0,0,1,0-9.236,11.831,11.831,0,0,1,6.407-6.53,11.548,11.548,0,0,1,4.521-.919c.095,0,.184.008.271.008h.024c.048,0,.095.008.143.008h.032c.087.008.176.008.257.016a11.832,11.832,0,0,1,10.216,7.417h0c0,.01,0,.01.008.01a12.193,12.193,0,0,1,0,9.234,11.841,11.841,0,0,1-6.407,6.53,11.584,11.584,0,0,1-3.85.9.242.242,0,0,1-.065.006h-.081c-.071,0-.135.01-.206.01a.08.08,0,0,1-.04.006C1116.789,8041.3,1116.748,8041.3,1116.716,8041.3Zm.887-1.72c1.655-.5,3.125-2.517,3.963-5.227H1117.6Zm-1.582,0v-5.227h-3.961C1112.9,8037.062,1114.368,8039.083,1116.021,8039.579Zm-3.458-.683a13.21,13.21,0,0,1-2.165-4.543h-2.819A10.279,10.279,0,0,0,1112.563,8038.9Zm8.828-.449a10.226,10.226,0,0,0,4.08-4.095h-2.235A13.667,13.667,0,0,1,1121.391,8038.447Zm-3.787-5.7h4.37a17.72,17.72,0,0,0,.344-3.5,19.41,19.41,0,0,0-.3-3.5h-4.41Zm-10.744,0h3.171a19.994,19.994,0,0,1-.3-3.5,21.471,21.471,0,0,1,.279-3.5h-3.147A10.537,10.537,0,0,0,1106.859,8032.748Zm17.039-3.511a19.733,19.733,0,0,1-.3,3.5h2.6a10.563,10.563,0,0,0,0-7h-2.573A21.228,21.228,0,0,1,1123.9,8029.237Zm-12.589,0a17.856,17.856,0,0,0,.342,3.5h4.37v-7h-4.408A20.256,20.256,0,0,0,1111.31,8029.237Zm.679-5.1h4.032V8018.9C1114.264,8019.35,1112.8,8021.331,1111.989,8024.132Zm11.287-.008h2.195a10.355,10.355,0,0,0-3.921-4.008A13.2,13.2,0,0,1,1123.276,8024.124Zm-5.673,0h4.034c-.814-2.793-2.276-4.773-4.034-5.236Zm-10.024,0h2.771a12.809,12.809,0,0,1,2.045-4.454A10.269,10.269,0,0,0,1107.579,8024.124Zm115.977,1.261a3.214,3.214,0,0,1-1.037-1.049,5.306,5.306,0,0,1-.651-1.625,9.064,9.064,0,0,1-.222-2.092,9.314,9.314,0,0,1,.216-2.092,5.185,5.185,0,0,1,.637-1.619,3.075,3.075,0,0,1,1.037-1.035,2.69,2.69,0,0,1,1.4-.368,2.6,2.6,0,0,1,1.376.368,3.206,3.206,0,0,1,1.029,1.035,5.24,5.24,0,0,1,.651,1.619,9.863,9.863,0,0,1,0,4.184,5.309,5.309,0,0,1-.651,1.625,3.235,3.235,0,0,1-1.029,1.049,2.565,2.565,0,0,1-1.376.374A2.6,2.6,0,0,1,1223.556,8025.385Zm.5-8.448a2.386,2.386,0,0,0-.63.851,4.984,4.984,0,0,0-.372,1.269,10.115,10.115,0,0,0,0,3.123,4.974,4.974,0,0,0,.372,1.271,2.355,2.355,0,0,0,.63.849,1.343,1.343,0,0,0,.881.312,1.306,1.306,0,0,0,.861-.312,2.363,2.363,0,0,0,.622-.849,5.051,5.051,0,0,0,.38-1.271,9.493,9.493,0,0,0,0-3.123,5.062,5.062,0,0,0-.38-1.269,2.4,2.4,0,0,0-.622-.851,1.316,1.316,0,0,0-.861-.311A1.353,1.353,0,0,0,1224.057,8016.937Zm-29.095,8.434a3.236,3.236,0,0,1-1.071-1.077,5.526,5.526,0,0,1-.665-1.623,8.5,8.5,0,0,1-.23-2.037,8.359,8.359,0,0,1,.239-2.045,5.443,5.443,0,0,1,.677-1.623,3.387,3.387,0,0,1,1.071-1.071,2.66,2.66,0,0,1,1.415-.388,3.1,3.1,0,0,1,1.342.291,2.457,2.457,0,0,1,1,.885l-.76.843a2.007,2.007,0,0,0-.691-.657,1.744,1.744,0,0,0-.841-.214,1.5,1.5,0,0,0-.962.319,2.372,2.372,0,0,0-.671.857,4.937,4.937,0,0,0-.4,1.263,8.488,8.488,0,0,0-.135,1.54,8.383,8.383,0,0,0,.135,1.532,4.923,4.923,0,0,0,.406,1.265,2.452,2.452,0,0,0,.685.863,1.541,1.541,0,0,0,.968.317,1.49,1.49,0,0,0,.889-.275,2.166,2.166,0,0,0,.616-.677l.732.814a2.879,2.879,0,0,1-.936.932,2.563,2.563,0,0,1-1.382.354A2.7,2.7,0,0,1,1194.962,8025.371Zm-54.938,0a3.234,3.234,0,0,1-1.071-1.077,5.523,5.523,0,0,1-.665-1.623,8.5,8.5,0,0,1-.23-2.037,8.266,8.266,0,0,1,.239-2.045,5.443,5.443,0,0,1,.677-1.623,3.368,3.368,0,0,1,1.071-1.071,2.655,2.655,0,0,1,1.415-.388,3.1,3.1,0,0,1,1.342.291,2.452,2.452,0,0,1,1,.885l-.758.843a2.007,2.007,0,0,0-.691-.657,1.75,1.75,0,0,0-.841-.214,1.5,1.5,0,0,0-.962.319,2.371,2.371,0,0,0-.671.857,4.937,4.937,0,0,0-.4,1.263,8.488,8.488,0,0,0-.135,1.54,8.383,8.383,0,0,0,.135,1.532,4.918,4.918,0,0,0,.406,1.265,2.431,2.431,0,0,0,.685.863,1.541,1.541,0,0,0,.968.317,1.49,1.49,0,0,0,.889-.275,2.166,2.166,0,0,0,.616-.677l.732.814a2.9,2.9,0,0,1-.936.932,2.558,2.558,0,0,1-1.382.354A2.7,2.7,0,0,1,1140.025,8025.371Zm71.836.151v-9.78h2.209a3.118,3.118,0,0,1,2.65,1.257,6.014,6.014,0,0,1,.942,3.646,5.916,5.916,0,0,1-.948,3.627,3.144,3.144,0,0,1-2.658,1.249Zm1.221-1.089h.984a1.939,1.939,0,0,0,.938-.236,2.135,2.135,0,0,0,.756-.7,3.757,3.757,0,0,0,.5-1.183,6.669,6.669,0,0,0,.182-1.665,6.8,6.8,0,0,0-.182-1.684,3.754,3.754,0,0,0-.5-1.188,2.119,2.119,0,0,0-.756-.705,1.96,1.96,0,0,0-.938-.235h-.984Zm-6.37,1.089-.542-2.292h-2.779l-.556,2.292H1201.6l2.413-9.78h1.613l2.357,9.78Zm-3.157-3.274h2.452l-1.178-5.346h-.055Zm-16.18,3.274v-9.78h1.219v9.78Zm-8.2,0v-9.78h4.038v1.132h-2.819v3.151h2.617v1.077h-2.617v4.42Zm-6.045,0v-9.78h1.221v9.78Zm-6.8,0v-8.717H1164.5v-1.063h4.879v1.063h-1.829v8.717Zm-6.138,0-1.625-4.365h-1.112v4.365h-1.193v-9.78h2.486a3.362,3.362,0,0,1,1,.146,2.2,2.2,0,0,1,.823.463,2.164,2.164,0,0,1,.556.829,3.281,3.281,0,0,1,.2,1.229,3.2,3.2,0,0,1-.152,1.037,2.573,2.573,0,0,1-.39.754,2.059,2.059,0,0,1-.526.489,1.717,1.717,0,0,1-.558.234l1.8,4.6Zm-2.736-5.332h1.124a1.453,1.453,0,0,0,1.112-.451,1.82,1.82,0,0,0,.42-1.283,2.1,2.1,0,0,0-.135-.818,1.423,1.423,0,0,0-.354-.514,1.177,1.177,0,0,0-.5-.269,2.123,2.123,0,0,0-.57-.079h-1.1Zm-9.677,5.332v-9.78h4.038v1.105h-2.86v3.08h2.67v1.035h-2.67v3.439h3v1.12Z" fill="#fff" opacity="0.73"/>
  </g>
</svg>
