<svg xmlns="http://www.w3.org/2000/svg" width="114" height="47.001" viewBox="0 0 114 47.001">
  <g id="Vector_Smart_Object" data-name="Vector Smart Object" transform="translate(-1093 -7942)">
    <g id="Vector_Smart_Object-2" data-name="Vector Smart Object" transform="translate(877.64 7899.644)">
      <g id="Group_3" data-name="Group 3">
        <path id="Path_43" data-name="Path 43" d="M269.637,75.646v4.086c1.3-.388,2.462-1.967,3.123-4.086Z" fill="#ffdb00"/>
        <path id="Path_44" data-name="Path 44" d="M255.6,52.008a1.412,1.412,0,0,0,.331-1,1.633,1.633,0,0,0-.107-.639,1.123,1.123,0,0,0-.277-.4.963.963,0,0,0-.4-.211,1.72,1.72,0,0,0-.449-.06h-.865V52.36h.886A1.147,1.147,0,0,0,255.6,52.008Z" fill="#ffdb00"/>
        <path id="Path_45" data-name="Path 45" d="M274.378,68.913a16.485,16.485,0,0,1,.22,2.736,15.284,15.284,0,0,1-.239,2.737h2.046a8.168,8.168,0,0,0,0-5.473Z" fill="#ffdb00"/>
        <path id="Path_46" data-name="Path 46" d="M287.908,69.65a1.866,1.866,0,0,0-.469-1.27,1.611,1.611,0,0,0-1.278-.535,1.713,1.713,0,0,0-1.294.5,1.822,1.822,0,0,0-.484,1.318,1.773,1.773,0,0,0,.476,1.27,1.667,1.667,0,0,0,1.271.5,1.733,1.733,0,0,0,1.286-.5A1.754,1.754,0,0,0,287.908,69.65Z" fill="#ffdb00"/>
        <path id="Path_47" data-name="Path 47" d="M273.352,71.655a15.116,15.116,0,0,0-.239-2.737h-3.476v5.473h3.444A13.75,13.75,0,0,0,273.352,71.655Z" fill="#ffdb00"/>
        <path id="Path_48" data-name="Path 48" d="M297.724,69.211a2.6,2.6,0,0,0-.5-.927,1.065,1.065,0,0,0-.845-.375,1.087,1.087,0,0,0-.854.375,2.613,2.613,0,0,0-.514.927,5.557,5.557,0,0,0-.245,1.19c-.042.427-.063.815-.063,1.167s.021.759.063,1.19a5.563,5.563,0,0,0,.245,1.2,2.613,2.613,0,0,0,.514.927,1.087,1.087,0,0,0,.854.375,1.065,1.065,0,0,0,.845-.375,2.6,2.6,0,0,0,.5-.927,5.9,5.9,0,0,0,.238-1.2q.063-.647.063-1.19c0-.352-.021-.74-.063-1.167A5.893,5.893,0,0,0,297.724,69.211Z" fill="#ffdb00"/>
        <path id="Path_49" data-name="Path 49" d="M299.2,55.491a1.672,1.672,0,0,0,.6-.55,2.941,2.941,0,0,0,.393-.923,5.217,5.217,0,0,0,.144-1.3,5.339,5.339,0,0,0-.144-1.317,2.938,2.938,0,0,0-.393-.928,1.672,1.672,0,0,0-.6-.55,1.549,1.549,0,0,0-.739-.184h-.776v5.938h.776A1.549,1.549,0,0,0,299.2,55.491Z" fill="#ffdb00"/>
        <path id="Path_50" data-name="Path 50" d="M305.835,54.908a1.836,1.836,0,0,0,.5.664,1.067,1.067,0,0,0,.694.243,1.035,1.035,0,0,0,.678-.243,1.882,1.882,0,0,0,.491-.664,3.953,3.953,0,0,0,.3-.993,7.4,7.4,0,0,0,0-2.44,3.962,3.962,0,0,0-.3-.993,1.884,1.884,0,0,0-.491-.664,1.035,1.035,0,0,0-.678-.243,1.067,1.067,0,0,0-.694.243,1.838,1.838,0,0,0-.5.664,3.813,3.813,0,0,0-.294.993,7.76,7.76,0,0,0,0,2.44A3.8,3.8,0,0,0,305.835,54.908Z" fill="#ffdb00"/>
        <path id="Path_51" data-name="Path 51" d="M291.176,49.791h-.043l-.961,4.178H292.1Z" fill="#ffdb00"/>
        <path id="Path_52" data-name="Path 52" d="M272.621,78.847a8.028,8.028,0,0,0,3.217-3.2h-1.763A10.582,10.582,0,0,1,272.621,78.847Z" fill="#ffdb00"/>
        <path id="Path_53" data-name="Path 53" d="M313.848,42.357H230.872A15.614,15.614,0,0,0,215.36,58.036V73.677a15.614,15.614,0,0,0,15.512,15.679h82.976A15.614,15.614,0,0,0,329.36,73.677V58.036A15.614,15.614,0,0,0,313.848,42.357Zm-9.247,8.7a4.048,4.048,0,0,1,.5-1.263,2.416,2.416,0,0,1,.817-.81,2.138,2.138,0,0,1,1.106-.286,2.058,2.058,0,0,1,1.084.286,2.5,2.5,0,0,1,.812.81,4.055,4.055,0,0,1,.513,1.263,7.687,7.687,0,0,1,0,3.271,4.118,4.118,0,0,1-.513,1.268,2.535,2.535,0,0,1-.812.821,2.026,2.026,0,0,1-1.084.291,2.054,2.054,0,0,1-1.089-.291,2.516,2.516,0,0,1-.817-.821,4.117,4.117,0,0,1-.512-1.268,7.034,7.034,0,0,1-.177-1.636A7.263,7.263,0,0,1,304.6,51.059Zm-7.882-2.176h1.741a2.466,2.466,0,0,1,2.088.983,4.667,4.667,0,0,1,.743,2.85,4.6,4.6,0,0,1-.748,2.834,2.485,2.485,0,0,1-2.094.977h-1.73Zm-6.184,0h1.271l1.858,7.644h-1l-.427-1.792h-2.19l-.438,1.792h-.972Zm-8.5,2.224a4.225,4.225,0,0,1,.534-1.269,2.645,2.645,0,0,1,.844-.836,2.1,2.1,0,0,1,1.116-.3,2.441,2.441,0,0,1,1.057.227,1.928,1.928,0,0,1,.79.691l-.6.659a1.569,1.569,0,0,0-.545-.513,1.374,1.374,0,0,0-.662-.167,1.2,1.2,0,0,0-.758.248,1.881,1.881,0,0,0-.529.669,3.835,3.835,0,0,0-.315.988,6.481,6.481,0,0,0-.107,1.2,6.388,6.388,0,0,0,.107,1.2,3.784,3.784,0,0,0,.32.988,1.9,1.9,0,0,0,.54.675,1.222,1.222,0,0,0,.763.248,1.175,1.175,0,0,0,.7-.216,1.661,1.661,0,0,0,.486-.529l.577.637a2.275,2.275,0,0,1-.737.729,2.044,2.044,0,0,1-1.089.275,2.15,2.15,0,0,1-1.132-.3,2.557,2.557,0,0,1-.844-.842,4.289,4.289,0,0,1-.523-1.269,6.564,6.564,0,0,1-.182-1.592A6.458,6.458,0,0,1,282.038,51.108Zm-11.081-2.224h3.183v.885h-2.222V52.23h2.061v.842h-2.061v3.455h-.961Zm-4.764,0h.961v7.644h-.961Zm-13.3,0h1.96a2.672,2.672,0,0,1,.787.114,1.65,1.65,0,0,1,1.087,1.01,2.569,2.569,0,0,1,.161.96,2.5,2.5,0,0,1-.119.81,2.022,2.022,0,0,1-.308.589,1.6,1.6,0,0,1-.415.383,1.333,1.333,0,0,1-.44.184l1.421,3.6h-1.036l-1.282-3.412h-.875v3.412h-.94Zm-6.686,0h3.183v.864H247.14v2.408h2.1v.81h-2.1v2.688h2.36v.874h-3.29Zm-7.471,2.224a4.225,4.225,0,0,1,.534-1.269,2.644,2.644,0,0,1,.844-.836,2.1,2.1,0,0,1,1.116-.3,2.44,2.44,0,0,1,1.057.227,1.931,1.931,0,0,1,.791.691l-.6.659a1.569,1.569,0,0,0-.545-.513,1.373,1.373,0,0,0-.662-.167,1.2,1.2,0,0,0-.758.248,1.888,1.888,0,0,0-.529.669,3.836,3.836,0,0,0-.315.988,6.483,6.483,0,0,0-.107,1.2,6.391,6.391,0,0,0,.107,1.2,3.784,3.784,0,0,0,.32.988,1.9,1.9,0,0,0,.54.675,1.223,1.223,0,0,0,.763.248,1.177,1.177,0,0,0,.7-.216,1.665,1.665,0,0,0,.486-.529l.577.637a2.267,2.267,0,0,1-.737.729,2.043,2.043,0,0,1-1.089.275,2.151,2.151,0,0,1-1.133-.3,2.556,2.556,0,0,1-.843-.842,4.279,4.279,0,0,1-.524-1.269,6.586,6.586,0,0,1-.182-1.592A6.455,6.455,0,0,1,238.74,51.108ZM225.578,61.574h32.47V62.8h-32.47Zm29.544,9.978A6.361,6.361,0,0,1,254.664,74a5.584,5.584,0,0,1-1.272,1.9,5.658,5.658,0,0,1-1.937,1.223,7.061,7.061,0,0,1-4.861,0,5.669,5.669,0,0,1-1.929-1.223,5.585,5.585,0,0,1-1.273-1.9,6.361,6.361,0,0,1-.458-2.452,6.288,6.288,0,0,1,.458-2.453,5.376,5.376,0,0,1,1.273-1.862,5.667,5.667,0,0,1,1.929-1.182,7.309,7.309,0,0,1,4.861,0,5.658,5.658,0,0,1,1.937,1.182,5.375,5.375,0,0,1,1.272,1.862A6.288,6.288,0,0,1,255.123,71.552Zm-20.115-2.03a1.062,1.062,0,0,0,.348.336,3.094,3.094,0,0,0,.545.263q.316.12.711.247.569.192,1.186.424a4.446,4.446,0,0,1,1.122.615,3.218,3.218,0,0,1,.838.951,2.762,2.762,0,0,1,.332,1.414,3.733,3.733,0,0,1-.355,1.686,3.358,3.358,0,0,1-.957,1.174,4.083,4.083,0,0,1-1.375.688,5.731,5.731,0,0,1-1.6.224,6.535,6.535,0,0,1-2.324-.424,4.91,4.91,0,0,1-1.865-1.207l1.77-1.822a3.271,3.271,0,0,0,1.083.855,2.911,2.911,0,0,0,1.336.344,2.654,2.654,0,0,0,.585-.064,1.445,1.445,0,0,0,.5-.207,1.048,1.048,0,0,0,.34-.384,1.224,1.224,0,0,0,.126-.575.92.92,0,0,0-.158-.543,1.562,1.562,0,0,0-.45-.407,3.648,3.648,0,0,0-.728-.336q-.435-.152-.988-.327a9.4,9.4,0,0,1-1.051-.415,3.5,3.5,0,0,1-.917-.615,2.84,2.84,0,0,1-.648-.911,3.111,3.111,0,0,1-.245-1.3,3.233,3.233,0,0,1,.379-1.613,3.322,3.322,0,0,1,1-1.1,4.27,4.27,0,0,1,1.391-.631,6.227,6.227,0,0,1,1.565-.2,5.765,5.765,0,0,1,1.937.352,4.979,4.979,0,0,1,1.731,1.039l-1.723,1.838a2.444,2.444,0,0,0-.909-.711,2.541,2.541,0,0,0-1.083-.263,3.182,3.182,0,0,0-.545.048,1.412,1.412,0,0,0-.5.184,1.233,1.233,0,0,0-.371.352.941.941,0,0,0-.15.551A.9.9,0,0,0,235.008,69.522Zm-9.081-3.579h2.719V77.256h-2.719Zm32.549,14.992h-32.47V79.712h32.47Zm.915-32.052h3.845v.831h-1.442v6.812h-.961V49.715H259.39Zm18.022,26.374a9.291,9.291,0,0,1-5.049,5.1,9.161,9.161,0,0,1-3.035.7.135.135,0,0,1-.05.006h-.063c-.057,0-.107.006-.164.006a.047.047,0,0,1-.032.006c-.025,0-.057-.006-.082-.006a1.084,1.084,0,0,1-.145.006,9.309,9.309,0,0,1-8.625-5.829,9.429,9.429,0,0,1,0-7.217,9.29,9.29,0,0,1,5.049-5.1,9.169,9.169,0,0,1,3.564-.719c.076,0,.145.006.214.006h.019c.038,0,.076.006.113.006h.025c.07.006.139.006.2.013a9.317,9.317,0,0,1,8.052,5.8c0,.006,0,.006.006.006A9.46,9.46,0,0,1,277.413,75.257Zm.968-18.73h-.961V48.883h.961Zm1.029,5.263h40.373v1.224H279.41Zm34.66,8.787-1.375-1.9,3.682-2.732h2.42V77.256h-2.64V68.947Zm-3.114.991a10.7,10.7,0,0,1-.238,2.285,5.871,5.871,0,0,1-.758,1.909,4.174,4.174,0,0,1-5.39,1.31,3.99,3.99,0,0,1-1.368-1.31,5.76,5.76,0,0,1-.766-1.909,10.672,10.672,0,0,1-.237-2.285,10.555,10.555,0,0,1,.237-2.277,5.586,5.586,0,0,1,.766-1.885,4.245,4.245,0,0,1,5.406-1.286,3.934,3.934,0,0,1,1.352,1.286,5.692,5.692,0,0,1,.758,1.885A10.582,10.582,0,0,1,310.955,71.568Zm-10.212,0a10.7,10.7,0,0,1-.238,2.285,5.872,5.872,0,0,1-.758,1.909,4.174,4.174,0,0,1-5.391,1.31,3.988,3.988,0,0,1-1.367-1.31,5.76,5.76,0,0,1-.767-1.909,10.7,10.7,0,0,1-.237-2.285,10.579,10.579,0,0,1,.237-2.277,5.586,5.586,0,0,1,.767-1.885,4.244,4.244,0,0,1,5.406-1.286,3.936,3.936,0,0,1,1.352,1.286,5.692,5.692,0,0,1,.758,1.885A10.58,10.58,0,0,1,300.743,71.568ZM285.822,73.4a2.679,2.679,0,0,1-.4.032,3.765,3.765,0,0,1-1.4-.264,3.554,3.554,0,0,1-1.168-.751,3.651,3.651,0,0,1-.8-1.166,3.69,3.69,0,0,1-.3-1.51,4.135,4.135,0,0,1,.347-1.726,3.763,3.763,0,0,1,.947-1.294,4.177,4.177,0,0,1,1.4-.807,5.378,5.378,0,0,1,3.424,0,4.084,4.084,0,0,1,1.4.807A3.847,3.847,0,0,1,290.2,68a3.948,3.948,0,0,1,.347,1.677,4.66,4.66,0,0,1-.347,1.83,10.673,10.673,0,0,1-.9,1.67l-2.7,4.074h-3.206l2.784-3.9.031-.048A1.932,1.932,0,0,1,285.822,73.4Zm34.389,7.746H279.837V79.927H320.21Z" fill="#ffdb00"/>
        <path id="Path_54" data-name="Path 54" d="M265.211,67.659h3.179V63.567C267.005,63.923,265.847,65.47,265.211,67.659Z" fill="#ffdb00"/>
        <path id="Path_55" data-name="Path 55" d="M307.936,69.211a2.6,2.6,0,0,0-.5-.927,1.064,1.064,0,0,0-.845-.375,1.088,1.088,0,0,0-.854.375,2.606,2.606,0,0,0-.514.927,5.531,5.531,0,0,0-.245,1.19c-.042.427-.063.815-.063,1.167s.021.759.063,1.19a5.537,5.537,0,0,0,.245,1.2,2.606,2.606,0,0,0,.514.927,1.088,1.088,0,0,0,.854.375,1.064,1.064,0,0,0,.845-.375,2.6,2.6,0,0,0,.5-.927,5.9,5.9,0,0,0,.237-1.2q.063-.647.063-1.19c0-.352-.021-.74-.063-1.167A5.894,5.894,0,0,0,307.936,69.211Z" fill="#ffdb00"/>
        <path id="Path_56" data-name="Path 56" d="M268.391,79.731V75.646h-3.123C265.929,77.765,267.087,79.343,268.391,79.731Z" fill="#ffdb00"/>
        <path id="Path_57" data-name="Path 57" d="M261.736,75.646a8.074,8.074,0,0,0,3.928,3.551,10.269,10.269,0,0,1-1.706-3.551Z" fill="#ffdb00"/>
        <path id="Path_58" data-name="Path 58" d="M265.532,64.172a8.08,8.08,0,0,0-3.8,3.481h2.184A9.973,9.973,0,0,1,265.532,64.172Z" fill="#ffdb00"/>
        <path id="Path_59" data-name="Path 59" d="M264.676,71.649a13.78,13.78,0,0,0,.27,2.737h3.444V68.913h-3.475A15.725,15.725,0,0,0,264.676,71.649Z" fill="#ffdb00"/>
        <path id="Path_60" data-name="Path 60" d="M263.43,71.655a16.492,16.492,0,0,1,.22-2.737h-2.48a8.164,8.164,0,0,0,0,5.473h2.5A15.377,15.377,0,0,1,263.43,71.655Z" fill="#ffdb00"/>
        <path id="Path_61" data-name="Path 61" d="M269.637,63.56v4.092h3.179C272.175,65.47,271.022,63.923,269.637,63.56Z" fill="#ffdb00"/>
        <path id="Path_62" data-name="Path 62" d="M275.838,67.653a8.118,8.118,0,0,0-3.091-3.131,10.23,10.23,0,0,1,1.36,3.131Z" fill="#ffdb00"/>
        <path id="Path_63" data-name="Path 63" d="M251.337,69.083a3.03,3.03,0,0,0-1.012-.719,3.174,3.174,0,0,0-1.3-.264,3.08,3.08,0,0,0-2.964,2.078,4.036,4.036,0,0,0-.229,1.374,4.081,4.081,0,0,0,.237,1.414,3.352,3.352,0,0,0,.656,1.11,2.994,2.994,0,0,0,1,.727,3.32,3.32,0,0,0,2.592,0,3.081,3.081,0,0,0,1.012-.727,3.284,3.284,0,0,0,.664-1.11,4.082,4.082,0,0,0,.238-1.414,3.918,3.918,0,0,0-.238-1.374A3.29,3.29,0,0,0,251.337,69.083Z" fill="#ffdb00"/>
      </g>
    </g>
    <path id="Color_Overlay" data-name="Color Overlay" d="M1108.513,7989A15.615,15.615,0,0,1,1093,7973.319v-15.639A15.615,15.615,0,0,1,1108.513,7942h82.976a15.613,15.613,0,0,1,15.51,15.681v15.639a15.613,15.613,0,0,1-15.51,15.681Zm48.964-8.2h40.374v-1.225h-40.374Zm-10.817-.072c.012,0,.026,0,.032-.006.056,0,.106-.006.164-.006h.062a.107.107,0,0,0,.05-.008,9.137,9.137,0,0,0,3.036-.7,9.3,9.3,0,0,0,5.049-5.1,9.461,9.461,0,0,0,0-7.216c-.006,0-.006,0-.006-.008a9.315,9.315,0,0,0-8.052-5.8c-.064-.006-.132-.006-.2-.014h-.026c-.036,0-.074-.006-.112-.006h-.018c-.07,0-.138-.006-.214-.006a9.128,9.128,0,0,0-3.563.72,9.286,9.286,0,0,0-5.051,5.1,9.439,9.439,0,0,0,0,7.218,9.311,9.311,0,0,0,8.625,5.828,1.188,1.188,0,0,0,.144-.006C1146.6,7980.718,1146.635,7980.724,1146.659,7980.724Zm-43.015-.144h32.471v-1.225h-32.471Zm78.565-14.817a3.987,3.987,0,0,0-1.369,1.287,5.58,5.58,0,0,0-.766,1.885,11.1,11.1,0,0,0,0,4.561,5.8,5.8,0,0,0,.766,1.911,4.014,4.014,0,0,0,1.369,1.309,3.986,3.986,0,0,0,5.389-1.309,5.878,5.878,0,0,0,.758-1.911,11.016,11.016,0,0,0,0-4.561,5.657,5.657,0,0,0-.758-1.885,3.777,3.777,0,0,0-3.366-1.767A3.991,3.991,0,0,0,1182.21,7965.763Zm-10.213,0a3.981,3.981,0,0,0-1.367,1.287,5.583,5.583,0,0,0-.766,1.885,11.11,11.11,0,0,0,0,4.561,5.8,5.8,0,0,0,.766,1.911,4.008,4.008,0,0,0,1.367,1.309,3.966,3.966,0,0,0,2.025.487,3.9,3.9,0,0,0,2.013-.487,3.95,3.95,0,0,0,1.353-1.309,5.922,5.922,0,0,0,.758-1.911,11.11,11.11,0,0,0,0-4.561,5.7,5.7,0,0,0-.758-1.885,3.783,3.783,0,0,0-3.366-1.767A4,4,0,0,0,1172,7965.763Zm-47.762-.064a5.678,5.678,0,0,0-1.929,1.183,5.368,5.368,0,0,0-1.271,1.861,6.275,6.275,0,0,0-.459,2.454,6.343,6.343,0,0,0,.459,2.452,5.59,5.59,0,0,0,1.271,1.9,5.7,5.7,0,0,0,1.929,1.223,6.688,6.688,0,0,0,2.426.431,6.759,6.759,0,0,0,2.436-.431,5.68,5.68,0,0,0,1.937-1.223,5.59,5.59,0,0,0,1.271-1.9,6.343,6.343,0,0,0,.459-2.452,6.275,6.275,0,0,0-.459-2.454,5.368,5.368,0,0,0-1.271-1.861,5.656,5.656,0,0,0-1.937-1.183,6.983,6.983,0,0,0-2.436-.415A6.91,6.91,0,0,0,1124.234,7965.7Zm-14.977,9.859a4.92,4.92,0,0,0,1.867,1.207,6.556,6.556,0,0,0,2.322.423,5.688,5.688,0,0,0,1.6-.225,4.069,4.069,0,0,0,1.375-.686,3.4,3.4,0,0,0,.956-1.175,3.733,3.733,0,0,0,.355-1.686,2.773,2.773,0,0,0-.331-1.414,3.215,3.215,0,0,0-.838-.95,4.425,4.425,0,0,0-1.123-.616q-.617-.231-1.185-.423c-.265-.086-.5-.168-.712-.249a3.071,3.071,0,0,1-.545-.263,1.061,1.061,0,0,1-.349-.337.9.9,0,0,1-.118-.477.95.95,0,0,1,.15-.554,1.266,1.266,0,0,1,.371-.351,1.461,1.461,0,0,1,.5-.185,3.147,3.147,0,0,1,.545-.046,2.531,2.531,0,0,1,1.083.263,2.44,2.44,0,0,1,.908.711l1.724-1.838a5.015,5.015,0,0,0-1.73-1.039,5.757,5.757,0,0,0-1.939-.353,6.191,6.191,0,0,0-1.564.2,4.251,4.251,0,0,0-1.391.629,3.358,3.358,0,0,0-1,1.1,3.235,3.235,0,0,0-.379,1.614,3.088,3.088,0,0,0,.247,1.3,2.82,2.82,0,0,0,.648.912,3.481,3.481,0,0,0,.916.616,9.465,9.465,0,0,0,1.051.415c.369.116.7.227.989.327a3.79,3.79,0,0,1,.728.337,1.545,1.545,0,0,1,.449.407.906.906,0,0,1,.158.543,1.228,1.228,0,0,1-.126.576,1.045,1.045,0,0,1-.339.383,1.433,1.433,0,0,1-.5.207,2.693,2.693,0,0,1-.585.064,2.921,2.921,0,0,1-1.335-.343,3.287,3.287,0,0,1-1.083-.856Zm84.538,1.343h2.641v-11.314h-2.42l-3.681,2.733,1.375,1.9,2.085-1.63Zm-29.976-3.9-2.785,3.9h3.206l2.7-4.074a10.716,10.716,0,0,0,.9-1.672,4.665,4.665,0,0,0,.347-1.828,3.953,3.953,0,0,0-.347-1.676,3.809,3.809,0,0,0-.938-1.279,4.072,4.072,0,0,0-1.4-.808,5.4,5.4,0,0,0-3.425,0,4.157,4.157,0,0,0-1.4.808,3.755,3.755,0,0,0-.946,1.293,4.124,4.124,0,0,0-.347,1.727,3.64,3.64,0,0,0,1.1,2.677,3.609,3.609,0,0,0,1.167.751,3.783,3.783,0,0,0,1.406.263,2.634,2.634,0,0,0,.4-.032,1.923,1.923,0,0,0,.387-.1Zm-60.252,3.9h2.719v-11.314h-2.719Zm53.483-14.244h40.374v-1.223h-40.374Zm-53.832-.216h32.471v-1.223h-32.471Zm80.341-13.811a2.428,2.428,0,0,0-.816.81,4.029,4.029,0,0,0-.5,1.261,7.254,7.254,0,0,0-.172,1.636,7.126,7.126,0,0,0,.177,1.636,4.153,4.153,0,0,0,.513,1.27,2.533,2.533,0,0,0,.816.82,2.073,2.073,0,0,0,1.091.293,2.03,2.03,0,0,0,1.083-.293,2.521,2.521,0,0,0,.812-.82,4.1,4.1,0,0,0,.513-1.27,7.67,7.67,0,0,0,0-3.272,4.036,4.036,0,0,0-.513-1.261,2.492,2.492,0,0,0-.812-.81,2.061,2.061,0,0,0-1.083-.287A2.148,2.148,0,0,0,1183.559,7948.63Zm-22.5.016a2.685,2.685,0,0,0-.844.836,4.246,4.246,0,0,0-.533,1.269,6.477,6.477,0,0,0-.187,1.6,6.618,6.618,0,0,0,.18,1.592,4.392,4.392,0,0,0,.523,1.269,2.587,2.587,0,0,0,.844.842,2.165,2.165,0,0,0,1.133.3,2.033,2.033,0,0,0,1.089-.277,2.267,2.267,0,0,0,.738-.728l-.577-.637a1.675,1.675,0,0,1-.485.529,1.192,1.192,0,0,1-.7.214,1.227,1.227,0,0,1-.764-.247,1.915,1.915,0,0,1-.539-.676,3.826,3.826,0,0,1-.321-.986,6.518,6.518,0,0,1-.106-1.2,6.612,6.612,0,0,1,.106-1.2,3.888,3.888,0,0,1,.315-.987,1.864,1.864,0,0,1,.529-.669,1.2,1.2,0,0,1,.758-.249,1.377,1.377,0,0,1,.664.168,1.562,1.562,0,0,1,.543.513l.6-.66a1.95,1.95,0,0,0-.79-.692,2.463,2.463,0,0,0-1.059-.227A2.1,2.1,0,0,0,1161.055,7948.646Zm-43.3,0a2.645,2.645,0,0,0-.844.836,4.251,4.251,0,0,0-.535,1.269,6.483,6.483,0,0,0-.186,1.6,6.609,6.609,0,0,0,.182,1.592,4.283,4.283,0,0,0,.523,1.269,2.587,2.587,0,0,0,.844.842,2.165,2.165,0,0,0,1.133.3,2.042,2.042,0,0,0,1.089-.277,2.28,2.28,0,0,0,.736-.728l-.575-.637a1.7,1.7,0,0,1-.487.529,1.187,1.187,0,0,1-.7.214,1.225,1.225,0,0,1-.762-.247,1.892,1.892,0,0,1-.539-.676,3.748,3.748,0,0,1-.321-.986,6.338,6.338,0,0,1-.108-1.2,6.429,6.429,0,0,1,.108-1.2,3.884,3.884,0,0,1,.313-.987,1.889,1.889,0,0,1,.531-.669,1.191,1.191,0,0,1,.758-.249,1.364,1.364,0,0,1,.662.168,1.549,1.549,0,0,1,.545.513l.6-.66a1.924,1.924,0,0,0-.79-.692,2.461,2.461,0,0,0-1.057-.227A2.1,2.1,0,0,0,1117.758,7948.646Zm56.6,7.525h1.73a2.483,2.483,0,0,0,2.093-.979,4.583,4.583,0,0,0,.748-2.833,4.66,4.66,0,0,0-.742-2.849,2.463,2.463,0,0,0-2.087-.982h-1.742Zm-4.485-1.792.427,1.792h1l-1.857-7.643h-1.271l-1.9,7.643h.97l.439-1.792Zm-14.813,1.792h.96v-7.643h-.96Zm-6.462,0h.96v-3.455h2.061v-.844h-2.061v-2.46h2.221v-.884H1148.6Zm-4.764,0h.96v-7.643h-.96Zm-6.8-6.813h1.442v6.813h.96v-6.813h1.442v-.83h-3.844Zm-4.68,3.4,1.281,3.413h1.037l-1.422-3.6a1.3,1.3,0,0,0,.441-.184,1.576,1.576,0,0,0,.415-.383,2.005,2.005,0,0,0,.309-.587,2.524,2.524,0,0,0,.118-.81,2.579,2.579,0,0,0-.16-.96,1.654,1.654,0,0,0-1.089-1.01,2.7,2.7,0,0,0-.786-.112h-1.961v7.643h.94v-3.413Zm-8.5,3.413h3.29v-.874h-2.362v-2.689h2.105v-.81h-2.105v-2.408h2.254v-.862h-3.182Zm23.426,19.119h3.122c-.66,2.118-1.819,3.7-3.122,4.084Zm-4.369,0h3.122v4.084C1144.727,7978.987,1143.568,7977.408,1142.908,7975.29Zm-3.533,0h2.224a10.192,10.192,0,0,0,1.706,3.549A8.062,8.062,0,0,1,1139.375,7975.29Zm12.341,0h1.762a8.03,8.03,0,0,1-3.216,3.2A10.628,10.628,0,0,0,1151.716,7975.29Zm31.663-.764a2.586,2.586,0,0,1-.513-.926,5.389,5.389,0,0,1-.245-1.2q-.063-.646-.064-1.189c0-.353.022-.742.064-1.167a5.331,5.331,0,0,1,.245-1.191,2.572,2.572,0,0,1,.513-.927,1.087,1.087,0,0,1,.854-.375,1.065,1.065,0,0,1,.846.375,2.612,2.612,0,0,1,.5.927,5.821,5.821,0,0,1,.237,1.191c.042.425.064.814.064,1.167s-.022.758-.064,1.189a5.883,5.883,0,0,1-.237,1.2,2.627,2.627,0,0,1-.5.926,1.066,1.066,0,0,1-.846.375A1.088,1.088,0,0,1,1183.379,7974.526Zm-10.211,0a2.623,2.623,0,0,1-.515-.926,5.626,5.626,0,0,1-.245-1.2q-.063-.646-.062-1.189c0-.353.02-.742.062-1.167a5.567,5.567,0,0,1,.245-1.191,2.608,2.608,0,0,1,.515-.927,1.085,1.085,0,0,1,.854-.375,1.061,1.061,0,0,1,.844.375,2.549,2.549,0,0,1,.5.927,5.819,5.819,0,0,1,.239,1.191c.042.425.062.814.062,1.167s-.02.758-.062,1.189a5.882,5.882,0,0,1-.239,1.2,2.563,2.563,0,0,1-.5.926,1.062,1.062,0,0,1-.844.375A1.085,1.085,0,0,1,1173.167,7974.526Zm-47.8-.078a3.037,3.037,0,0,1-1-.728,3.34,3.34,0,0,1-.658-1.111,4.294,4.294,0,0,1-.008-2.789,3.16,3.16,0,0,1,.658-1.095,3.1,3.1,0,0,1,2.306-.982,3.159,3.159,0,0,1,1.305.265,3.008,3.008,0,0,1,1.01.718,3.286,3.286,0,0,1,.658,1.095,3.911,3.911,0,0,1,.237,1.375,4.067,4.067,0,0,1-.237,1.413,3.263,3.263,0,0,1-.666,1.111,3.111,3.111,0,0,1-1.011.728,3.329,3.329,0,0,1-2.592,0Zm21.912-.413v-5.474h3.477a15.218,15.218,0,0,1,.239,2.737,13.76,13.76,0,0,1-.273,2.737Zm-8.469,0a8.192,8.192,0,0,1,0-5.474h2.482a16.345,16.345,0,0,0-.221,2.737,15.468,15.468,0,0,0,.239,2.737Zm13.191-.006a15.419,15.419,0,0,0,.239-2.737,16.513,16.513,0,0,0-.219-2.735h2.027a8.187,8.187,0,0,1,0,5.472Zm-9.413,0a13.919,13.919,0,0,1-.269-2.737,15.605,15.605,0,0,1,.239-2.735h3.475v5.472Zm19.913-3.449a1.781,1.781,0,0,1-.475-1.271,1.818,1.818,0,0,1,.483-1.317,1.708,1.708,0,0,1,1.3-.5,1.613,1.613,0,0,1,1.277.536,1.86,1.86,0,0,1,.467,1.269,1.693,1.693,0,0,1-1.776,1.791A1.667,1.667,0,0,1,1162.5,7970.581Zm-19.649-3.278c.638-2.189,1.8-3.735,3.18-4.092v4.092Zm8.9-.006a10.276,10.276,0,0,0-1.361-3.132,8.118,8.118,0,0,1,3.092,3.132Zm-4.471,0V7963.2c1.385.363,2.536,1.909,3.18,4.092Zm-7.9,0a8.066,8.066,0,0,1,3.8-3.48,9.943,9.943,0,0,0-1.612,3.48Zm44.6-12.082a1.826,1.826,0,0,1-.5-.664,3.807,3.807,0,0,1-.295-.993,7.775,7.775,0,0,1,0-2.44,3.847,3.847,0,0,1,.295-.994,1.825,1.825,0,0,1,.5-.662,1.064,1.064,0,0,1,.694-.244,1.033,1.033,0,0,1,.678.244,1.837,1.837,0,0,1,.491.662,4.008,4.008,0,0,1,.3.994,7.326,7.326,0,0,1,0,2.44,3.964,3.964,0,0,1-.3.993,1.839,1.839,0,0,1-.491.664,1.029,1.029,0,0,1-.678.243A1.06,1.06,0,0,1,1183.972,7955.214Zm-8.651.1v-5.939h.776a1.554,1.554,0,0,1,.74.185,1.679,1.679,0,0,1,.6.549,2.941,2.941,0,0,1,.393.928,5.338,5.338,0,0,1,.144,1.317,5.216,5.216,0,0,1-.144,1.3,2.956,2.956,0,0,1-.393.924,1.7,1.7,0,0,1-.6.549,1.559,1.559,0,0,1-.74.185Zm-7.509-1.707.96-4.178h.044l.928,4.178Zm-36.336-1.61v-2.667h.866a1.8,1.8,0,0,1,.447.06.978.978,0,0,1,.4.212,1.112,1.112,0,0,1,.277.4,1.613,1.613,0,0,1,.108.64,1.409,1.409,0,0,1-.333,1,1.145,1.145,0,0,1-.876.351Z" fill="#e0dcdc"/>
  </g>
</svg>
