<svg xmlns="http://www.w3.org/2000/svg" viewBox="0 0 92.77 69.41"><defs><style>.cls-1{fill:#fff;}</style></defs><title>Asset 1</title><g id="Layer_2" data-name="Layer 2"><g id="Layer_1-2" data-name="Layer 1"><path class="cls-1" d="M75.89,45.72A16.74,16.74,0,0,1,61.42,37.5l-.94-1.57-1.16,1.42a22.74,22.74,0,0,1-17.64,8.37A23,23,0,0,1,25.56,39l-1.15-1.14-.85,1.37A12.44,12.44,0,1,1,17.29,21l1.52.56L19,20a22.85,22.85,0,0,1,44.2-4.77l.61,1.72,1.41-1.15A16.87,16.87,0,1,1,75.89,45.72Zm0-28.65A11.77,11.77,0,1,0,87.66,28.84,11.78,11.78,0,0,0,75.89,17.07Zm-34.21-12A17.75,17.75,0,1,0,59.43,22.86,17.77,17.77,0,0,0,41.68,5.11ZM13,25.36a7.32,7.32,0,1,0,7.32,7.32A7.33,7.33,0,0,0,13,25.36Z"/><path class="cls-1" d="M5,65.75a5.15,5.15,0,0,1-2.06-.44A4.88,4.88,0,0,1,.78,63.46,5.12,5.12,0,0,1,.78,58,4.91,4.91,0,0,1,2.93,56.2,5.16,5.16,0,0,1,5,55.76a5.12,5.12,0,0,1,1.73.31A5.56,5.56,0,0,1,8.28,57a.94.94,0,0,1,.3.6.92.92,0,0,1-.21.64.91.91,0,0,1-.65.3.82.82,0,0,1-.6-.24,3.25,3.25,0,0,0-3.48-.5,3.23,3.23,0,0,0,0,5.92A3.25,3.25,0,0,0,5,64a3.12,3.12,0,0,0,2.13-.82A1,1,0,0,1,7.72,63a.89.89,0,0,1,.64.28.84.84,0,0,1,.22.65.87.87,0,0,1-.29.6,5.58,5.58,0,0,1-1.55.93A5.11,5.11,0,0,1,5,65.75Z"/><path class="cls-1" d="M11.48,65.75a.86.86,0,0,1-.86-.86V53.25a.87.87,0,0,1,.25-.61.84.84,0,0,1,1.23,0,.87.87,0,0,1,.25.61V64.89a.86.86,0,0,1-.86.86Z"/><path class="cls-1" d="M19.18,65.75a4.87,4.87,0,0,1-1.95-.39,5.18,5.18,0,0,1-1.59-1.06,5,5,0,0,1-1.08-1.58,5,5,0,0,1,0-3.88,5.06,5.06,0,0,1,2.66-2.67,5,5,0,0,1,3.88,0,5,5,0,0,1,2.68,2.67,5,5,0,0,1,0,3.88,5,5,0,0,1-1.08,1.58,5.14,5.14,0,0,1-1.6,1.06A4.89,4.89,0,0,1,19.18,65.75Zm0-8.23a3.21,3.21,0,0,0-1.26.25,3.22,3.22,0,0,0-1.74,1.74,3.26,3.26,0,0,0,0,2.53,3.22,3.22,0,0,0,1.74,1.74,3.27,3.27,0,0,0,2.53,0A3.22,3.22,0,0,0,22.18,62a3.27,3.27,0,0,0,0-2.53,3.22,3.22,0,0,0-1.74-1.74A3.2,3.2,0,0,0,19.18,57.52Z"/><path class="cls-1" d="M30.64,65.75a4.87,4.87,0,0,1-1.95-.39,5,5,0,0,1-1.58-1.08,5.17,5.17,0,0,1-1.06-1.58,4.87,4.87,0,0,1-.39-1.95V56.62a.86.86,0,0,1,1.72,0v4.14A3.2,3.2,0,0,0,27.64,62a3.23,3.23,0,0,0,1.74,1.74,3.27,3.27,0,0,0,2.53,0A3.22,3.22,0,0,0,33.64,62a3.2,3.2,0,0,0,.25-1.26V56.62a.82.82,0,0,1,.27-.61.87.87,0,0,1,.61-.25.86.86,0,0,1,.86.86v4.14a4.88,4.88,0,0,1-.39,1.95,5.06,5.06,0,0,1-2.67,2.66A4.9,4.9,0,0,1,30.64,65.75Z"/><path class="cls-1" d="M42.15,65.75a4.87,4.87,0,0,1-1.95-.39,5.09,5.09,0,0,1-2.66-2.66,5,5,0,0,1,0-3.88,5.06,5.06,0,0,1,2.66-2.67,5,5,0,0,1,4.3.21,5.11,5.11,0,0,1,.9.62V53.23a.83.83,0,0,1,.25-.61.86.86,0,0,1,.63-.25.86.86,0,0,1,.86.86v7.53a4.88,4.88,0,0,1-.39,1.95,5.06,5.06,0,0,1-2.67,2.66A4.89,4.89,0,0,1,42.15,65.75Zm0-8.25a3.2,3.2,0,0,0-1.26.25,3.22,3.22,0,0,0-1.74,1.74,3.29,3.29,0,0,0,0,2.54,3.25,3.25,0,0,0,1.74,1.73,3.27,3.27,0,0,0,2.53,0,3.27,3.27,0,0,0,1-.7,3.31,3.31,0,0,0,.7-1,3.17,3.17,0,0,0,.25-1.27,3.21,3.21,0,0,0-.25-1.26,3.22,3.22,0,0,0-1.74-1.74A3.21,3.21,0,0,0,42.15,57.5Z"/><path class="cls-1" d="M62.3,65.75a.82.82,0,0,1-.61-.27.87.87,0,0,1-.25-.61V60.76a3.2,3.2,0,0,0-.25-1.26,3.22,3.22,0,0,0-1.74-1.74,3.29,3.29,0,0,0-2.54,0,3.25,3.25,0,0,0-1.73,1.74,3.21,3.21,0,0,0-.25,1.26v4.12a.87.87,0,0,1-.25.61.82.82,0,0,1-.61.27.84.84,0,0,1-.64-.27.87.87,0,0,1-.25-.61V60.76a4.89,4.89,0,0,1,.39-1.93,5.07,5.07,0,0,1,2.66-2.67,5,5,0,0,1,3.88,0,5,5,0,0,1,2.68,2.67,4.91,4.91,0,0,1,.39,1.93v4.12a.87.87,0,0,1-.25.61A.84.84,0,0,1,62.3,65.75Z"/><path class="cls-1" d="M76.83,65.46a.86.86,0,0,1-.86-.77h0v-.16h0a.86.86,0,0,1,.86-.76.87.87,0,0,1,.61.25.82.82,0,0,1,.26.5h0v.16h0a.83.83,0,0,1-.26.53A.87.87,0,0,1,76.83,65.46Z"/><path class="cls-1" d="M87.77,65.75a4.87,4.87,0,0,1-1.95-.39,5.18,5.18,0,0,1-1.59-1.06,5,5,0,0,1-1.08-1.58,5,5,0,0,1,0-3.88,5.06,5.06,0,0,1,2.66-2.67,5,5,0,0,1,3.88,0,5,5,0,0,1,2.68,2.67,5,5,0,0,1,0,3.88A5,5,0,0,1,91.3,64.3a5.14,5.14,0,0,1-1.6,1.06A4.89,4.89,0,0,1,87.77,65.75Zm0-8.23a3.21,3.21,0,0,0-1.26.25,3.22,3.22,0,0,0-1.74,1.74,3.26,3.26,0,0,0,0,2.53,3.22,3.22,0,0,0,1.74,1.74,3.27,3.27,0,0,0,2.53,0A3.22,3.22,0,0,0,90.77,62a3.27,3.27,0,0,0,0-2.53A3.22,3.22,0,0,0,89,57.78,3.2,3.2,0,0,0,87.77,57.52Z"/><path class="cls-1" d="M69.74,69.41h-.55l-.24,0-.28-.05a5.31,5.31,0,0,1-2.51-1.38.87.87,0,0,1-.25-.7.84.84,0,0,1,.84-.76.87.87,0,0,1,.63.27,3.24,3.24,0,0,0,.6.49h0a3.07,3.07,0,0,0,1.17.44l.17,0h.41a3,3,0,0,0,2.5-1.14,3.75,3.75,0,0,0,.81-2,5.15,5.15,0,0,1-1.32.82,5,5,0,0,1-3.88,0,5.18,5.18,0,0,1-1.59-1.06,5,5,0,0,1-1.08-1.58,5,5,0,0,1,0-3.88,5.06,5.06,0,0,1,2.66-2.67,5,5,0,0,1,3.88,0,5,5,0,0,1,2.68,2.67,4.85,4.85,0,0,1,.37,1.47,1.1,1.1,0,0,1,0,.2v3.87a5.09,5.09,0,0,1-4.94,5h-.11Zm.05-11.89a3.21,3.21,0,0,0-1.26.25,3.22,3.22,0,0,0-1.74,1.74,3.26,3.26,0,0,0,0,2.53,3.22,3.22,0,0,0,1.74,1.74,3.27,3.27,0,0,0,2.53,0A3.22,3.22,0,0,0,72.8,62a3.27,3.27,0,0,0,0-2.53,3.22,3.22,0,0,0-1.74-1.74A3.2,3.2,0,0,0,69.8,57.52Z"/><path class="cls-1" d="M79.86,65.75a.83.83,0,0,1-.61-.25.85.85,0,0,1-.25-.63V56.64a.86.86,0,0,1,.25-.63.83.83,0,0,1,.61-.25.87.87,0,0,1,.61.25.84.84,0,0,1,.27.63v8.23a.84.84,0,0,1-.27.64A.87.87,0,0,1,79.86,65.75Z"/><path class="cls-1" d="M79.86,54.26a.86.86,0,0,1-.85-.75h0v-.16h0a.87.87,0,0,1,.24-.51.81.81,0,0,1,.61-.27.9.9,0,0,1,.88.77h0v.16h0a.82.82,0,0,1-.26.51A.87.87,0,0,1,79.86,54.26Z"/><path class="cls-1" d="M50.25,65.75a.83.83,0,0,1-.61-.25.85.85,0,0,1-.25-.63V56.64a.86.86,0,0,1,.25-.63.83.83,0,0,1,.61-.25.87.87,0,0,1,.61.25.84.84,0,0,1,.27.63v8.23a.84.84,0,0,1-.27.64A.87.87,0,0,1,50.25,65.75Z"/><path class="cls-1" d="M50.25,54.26a.86.86,0,0,1-.85-.75h0v-.16h0a.87.87,0,0,1,.24-.51.81.81,0,0,1,.61-.27.9.9,0,0,1,.88.77h0v.16h0a.82.82,0,0,1-.26.51A.87.87,0,0,1,50.25,54.26Z"/></g></g></svg>