<svg id="Layer_1" data-name="Layer 1" xmlns="http://www.w3.org/2000/svg" width="407.115" height="219.776" viewBox="0 0 407.115 219.776">
  <path id="Path_6838" data-name="Path 6838" d="M161.973,190.43a26.343,26.343,0,0,1-21.83-11.437A34.722,34.722,0,0,1,114.36,190.43a35.145,35.145,0,0,1-23.471-9.137,20.413,20.413,0,1,1-10.9-31.75,34.9,34.9,0,0,1,66.634-7.384,26.591,26.591,0,1,1,15.353,48.285Zm-21.507-15.875.97,1.616a23.981,23.981,0,1,0,5.433-30.831l-1.454,1.243-.671-1.865a32.322,32.322,0,0,0-62.407,6.726l-.211,1.653-1.566-.584a17.529,17.529,0,0,0-6.116-1.106,17.765,17.765,0,1,0,15.1,27.151l.883-1.4,1.181,1.169a32.484,32.484,0,0,0,22.762,9.461,32.111,32.111,0,0,0,24.863-11.823Z" transform="translate(13.163 29.333)" fill="#fff"/>
  <path id="Path_6839" data-name="Path 6839" d="M183.742,50.686a19.207,19.207,0,0,1-15.664-7.944A25.2,25.2,0,0,1,149.691,50.7a25.5,25.5,0,0,1-16.733-6.353,14.918,14.918,0,1,1-8.143-23.732,25.323,25.323,0,0,1,48.111-5.383,19.381,19.381,0,1,1,10.8,35.468ZM168.414,38.254l.97,1.616a16.77,16.77,0,1,0,3.792-21.557l-1.454,1.243-.634-1.765a22.688,22.688,0,0,0-43.9,4.736l-.211,1.653-1.554-.584a12.183,12.183,0,0,0-4.252-.758,12.32,12.32,0,1,0,10.455,18.834l.883-1.4,1.181,1.169A22.849,22.849,0,0,0,149.7,48.088a22.588,22.588,0,0,0,17.516-8.3Z" transform="translate(25.88 0.007)" fill="#fff"/>
  <path id="Path_6840" data-name="Path 6840" d="M326.945,44.575a15.39,15.39,0,0,1-12.369-6.1,20.1,20.1,0,0,1-14.446,6.1A20.351,20.351,0,0,1,287,39.689a12.059,12.059,0,1,1-6.676-19.418,20.214,20.214,0,0,1,38.2-4.314A15.54,15.54,0,1,1,326.92,44.55ZM314.923,34.033l.97,1.616a12.917,12.917,0,1,0,2.921-16.609l-1.455,1.243-.634-1.765a17.578,17.578,0,0,0-34,3.667l-.211,1.653-1.5-.634a9.3,9.3,0,0,0-3.245-.584,9.423,9.423,0,1,0,7.994,14.4l.883-1.4,1.181,1.169a17.69,17.69,0,0,0,12.432,5.159,17.491,17.491,0,0,0,13.575-6.44Z" transform="translate(64.614 1.009)" fill="#fff"/>
  <path id="Path_6841" data-name="Path 6841" d="M51.714,171.009a.622.622,0,0,1-.311-.087l-1.479-.87a.625.625,0,0,1,.646-1.069l1.455.858a.622.622,0,0,1-.311,1.169Zm-4.438-2.76a.621.621,0,0,1-.348-.112c-.982-.671-1.952-1.368-2.9-2.076a.622.622,0,1,1,.746-.995c.92.7,1.877,1.38,2.834,2.026a.622.622,0,0,1-.348,1.131Zm-5.507-4.239a.621.621,0,0,1-.4-.149c-.908-.771-1.8-1.579-2.648-2.387a.622.622,0,1,1,.858-.9c.833.8,1.7,1.579,2.586,2.337a.622.622,0,0,1-.4,1.094Zm-5.085-4.873a.622.622,0,0,1-.46-.2c-.808-.87-1.591-1.778-2.337-2.685a.623.623,0,0,1,.97-.783c.721.9,1.492,1.778,2.287,2.636a.622.622,0,0,1-.46,1.044Zm-4.438-5.47a.622.622,0,0,1-.51-.261c-.684-.97-1.343-1.964-1.964-2.971a.622.622,0,0,1,1.057-.646c.6.982,1.243,1.964,1.914,2.909a.622.622,0,0,1-.51.982Zm-3.73-6a.622.622,0,0,1-.547-.336c-.547-1.057-1.057-2.138-1.529-3.22a.624.624,0,0,1,1.144-.5c.46,1.057.957,2.113,1.492,3.145a.622.622,0,0,1-.547.908ZM25.732,141.2a.622.622,0,0,1-.584-.423c-.385-1.119-.746-2.263-1.044-3.406a.642.642,0,0,1,1.243-.323c.3,1.119.634,2.238,1.019,3.319a.622.622,0,0,1-.385.8Zm-1.815-6.8a.622.622,0,0,1-.609-.51c-.224-1.169-.4-2.35-.535-3.531a.622.622,0,0,1,.547-.684.634.634,0,0,1,.684.547c.137,1.144.311,2.3.522,3.431a.622.622,0,0,1-.5.721Zm-.8-7.011a.622.622,0,0,1-.622-.6v-3.568a.622.622,0,0,1,.622-.609h0a.622.622,0,0,1,.609.634v3.481a.622.622,0,0,1-.6.646Zm.224-7.036h-.1a.622.622,0,0,1-.522-.709,32.322,32.322,0,0,1,.733-3.518.642.642,0,0,1,1.243.323,31.079,31.079,0,0,0-.709,3.381.622.622,0,0,1-.659.522Zm1.753-6.825h-.2a.622.622,0,0,1-.385-.8c.385-1.119.82-2.238,1.243-3.332a.622.622,0,1,1,1.144.485c-.448,1.069-.87,2.163-1.243,3.245a.622.622,0,0,1-.572.41Zm2.772-6.477a.622.622,0,0,1-.547-.908c.572-1.106,1.169-2.151,1.778-3.108a.622.622,0,0,1,1.044.671c-.584.92-1.169,1.939-1.716,3.008a.622.622,0,0,1-.572.336Zm3.829-5.905a.622.622,0,0,1-.472-1.019,13.451,13.451,0,0,1,2.71-2.486.622.622,0,1,1,.684,1.032,12.246,12.246,0,0,0-2.486,2.263.622.622,0,0,1-.448.211Z" transform="translate(5.495 23.718)" fill="#50cefb" opacity="0.75"/>
  <path id="Path_6842" data-name="Path 6842" d="M103.924,95.171h-1.318a.622.622,0,0,1-.6-.646.659.659,0,0,1,.646-.6h3.456a.634.634,0,0,1,.659.584.622.622,0,0,1-.584.659Zm-4.811-.311h-.087a33.334,33.334,0,0,1-3.518-.646.638.638,0,1,1,.286-1.243c1.119.261,2.263.472,3.406.634a.623.623,0,0,1-.087,1.243Zm10.53-.124a.624.624,0,0,1-.1-1.243c1.144-.174,2.275-.41,3.394-.7a.641.641,0,1,1,.311,1.243,33.055,33.055,0,0,1-3.506.721Zm-17.4-1.492h-.211a33.753,33.753,0,0,1-3.319-1.355.622.622,0,1,1,.535-1.119,32.45,32.45,0,0,0,3.195,1.305.631.631,0,0,1-.211,1.243Zm24.279-.286a.631.631,0,1,1-.211-1.243,34.225,34.225,0,0,0,3.183-1.355.623.623,0,0,1,.547,1.119,35.6,35.6,0,0,1-3.307,1.392.622.622,0,0,1-.211.087Zm6.216-3.071a.622.622,0,0,1-.323-1.156c.709-.435,1.417-.92,2.089-1.417l.746-.572a.624.624,0,0,1,.771.982l-.771.584c-.7.51-1.43,1.007-2.176,1.467A.622.622,0,0,1,122.733,89.888Zm5.545-4.326a.622.622,0,0,1-.435-1.069,34.293,34.293,0,0,0,2.362-2.486.622.622,0,0,1,.957.8,35.358,35.358,0,0,1-2.486,2.623.622.622,0,0,1-.336.137Zm4.538-5.383a.622.622,0,0,1-.51-.97c.646-.945,1.243-1.939,1.815-2.946a.623.623,0,0,1,1.094.6c-.572,1.044-1.243,2.076-1.877,3.046a.622.622,0,0,1-.46.286Zm3.394-6.216a.622.622,0,0,1-.572-.87c.46-1.057.87-2.151,1.243-3.245a.651.651,0,1,1,1.243.385c-.361,1.131-.783,2.25-1.243,3.357a.622.622,0,0,1-.609.435Zm2.225-6.663H138.3a.622.622,0,0,1-.472-.746c.249-1.131.435-2.275.572-3.419a.626.626,0,0,1,1.243.149,34.315,34.315,0,0,1-.6,3.531A.622.622,0,0,1,138.434,67.3Zm.82-6.987h0a.622.622,0,0,1-.609-.634v-.522a20.9,20.9,0,0,0-.137-2.934.624.624,0,1,1,1.243-.112c.087,1.007.137,2.026.137,3.046v.535a.622.622,0,0,1-.634.646Z" transform="translate(21.498 13.515)" fill="#50cefb"/>
  <path id="Path_6843" data-name="Path 6843" d="M147.243,134.053a.621.621,0,0,1-.41-.162,20.663,20.663,0,0,1-2.486-2.648.624.624,0,0,1,.982-.771,19.268,19.268,0,0,0,2.325,2.486.622.622,0,0,1-.41,1.082Zm-4.326-5.52a.622.622,0,0,1-.547-.323A22.927,22.927,0,0,1,140.9,124.9a.622.622,0,1,1,1.169-.41,21.746,21.746,0,0,0,1.38,3.133.622.622,0,0,1-.547.92Zm-2.325-6.626a.622.622,0,0,1-.609-.51,23.085,23.085,0,0,1-.373-3.593.622.622,0,0,1,.609-.634h0a.622.622,0,0,1,.622.609,21.8,21.8,0,0,0,.361,3.406.622.622,0,0,1-.5.721Zm-.162-7.011h-.087a.622.622,0,0,1-.535-.7,21.058,21.058,0,0,1,.808-3.531.651.651,0,1,1,1.243.385,19.892,19.892,0,0,0-.758,3.332.622.622,0,0,1-.684.51Zm2.163-6.676a.622.622,0,0,1-.547-.92,21.361,21.361,0,0,1,1.977-3.033.624.624,0,0,1,.982.771,19.991,19.991,0,0,0-1.865,2.859.622.622,0,0,1-.559.336Zm4.3-5.532a.622.622,0,0,1-.423-1.082,23.261,23.261,0,0,1,2.834-2.238.622.622,0,0,1,.7,1.032,22.1,22.1,0,0,0-2.685,2.126.622.622,0,0,1-.435.162Zm5.83-3.9a.635.635,0,0,1-.261-1.243,22.762,22.762,0,0,1,3.394-1.243.644.644,0,1,1,.336,1.243,21.383,21.383,0,0,0-3.207,1.243.621.621,0,0,1-.274,0Zm6.75-1.89a.622.622,0,1,1-.062-1.243,20.577,20.577,0,0,1,2.834-.1.622.622,0,0,1,.6.646.584.584,0,0,1-.646.6,19.435,19.435,0,0,0-2.66.1Z" transform="translate(33.972 23.241)" fill="#50cefb"/>
  <path id="Path_6844" data-name="Path 6844" d="M254.952,72.04a.624.624,0,1,1-.1-1.243c1.169-.2,2.325-.423,3.431-.671a.635.635,0,0,1,.261,1.243c-1.119.249-2.3.472-3.493.684Zm6.875-1.529a.627.627,0,1,1-.162-1.243c1.144-.323,2.263-.671,3.319-1.044a.622.622,0,1,1,.41,1.169c-1.082.385-2.225.733-3.406,1.069Zm6.651-2.287a.634.634,0,0,1-.249-1.243c1.082-.472,2.126-.982,3.12-1.517a.623.623,0,1,1,.6,1.094c-1.019.559-2.1,1.082-3.22,1.566A.622.622,0,0,1,268.477,68.224Zm6.216-3.369a.622.622,0,0,1-.348-1.131,32.1,32.1,0,0,0,2.747-2.089.622.622,0,0,1,.808.945,33.189,33.189,0,0,1-2.859,2.176.622.622,0,0,1-.385.037Zm5.346-4.637a.622.622,0,0,1-.46-1.044,25.817,25.817,0,0,0,2.138-2.7.622.622,0,0,1,1.019.709,26.882,26.882,0,0,1-2.238,2.822A.622.622,0,0,1,280.039,60.217Zm3.978-5.793a.622.622,0,0,1-.559-.908,24.707,24.707,0,0,0,1.33-3.17.623.623,0,0,1,1.181.4,25.924,25.924,0,0,1-1.4,3.319.621.621,0,0,1-.584.373Zm2.238-6.651h-.112a.622.622,0,0,1-.51-.721,20.217,20.217,0,0,0,.311-3.394.622.622,0,1,1,1.243,0,21.54,21.54,0,0,1-.336,3.605A.622.622,0,0,1,286.255,47.773Zm0-7.011a.622.622,0,0,1-.609-.51,17.07,17.07,0,0,0-.833-3,.626.626,0,0,1,1.169-.448,18.33,18.33,0,0,1,.9,3.22.622.622,0,0,1-.5.721Z" transform="translate(61.856 8.862)" fill="#50cefb"/>
  <path id="Path_6845" data-name="Path 6845" d="M254.12,85.517a.622.622,0,0,1-.4-1.094c.9-.758,1.827-1.5,2.8-2.213a.623.623,0,1,1,.733,1.007c-.945.7-1.865,1.417-2.723,2.163A.622.622,0,0,1,254.12,85.517Zm5.669-4.177a.622.622,0,0,1-.336-1.144c.995-.634,2.026-1.243,3.071-1.8a.623.623,0,1,1,.6,1.094c-1.019.547-2.026,1.144-3.008,1.765a.621.621,0,0,1-.261.137Zm6.216-3.357a.635.635,0,0,1-.261-1.243c1.057-.5,2.163-.97,3.27-1.4a.622.622,0,0,1,.46,1.156c-1.082.435-2.163.9-3.207,1.38a.609.609,0,0,1-.224.186Zm6.539-2.611a.629.629,0,0,1-.2-1.243q1.678-.572,3.394-1.069a.645.645,0,0,1,.348,1.243q-1.678.485-3.332,1.044Zm6.763-1.964a.626.626,0,1,1-.149-1.243q1.716-.423,3.456-.783a.634.634,0,0,1,.249,1.243q-1.716.361-3.419.771Zm6.9-1.43a.624.624,0,1,1-.1-1.243q1.74-.3,3.493-.559a.629.629,0,1,1,.186,1.243q-1.74.261-3.468.559Zm6.974-1.032a.623.623,0,0,1-.075-1.243l3.518-.4a.625.625,0,0,1,.137,1.243l-3.493.4Zm7.011-.758a.622.622,0,0,1,0-1.243c1.156-.112,2.325-.236,3.493-.373a.634.634,0,0,1,.7.547.622.622,0,0,1-.547.7c-1.169.137-2.35.261-3.518.385Zm7-.87a.624.624,0,1,1-.1-1.243c1.243-.2,2.35-.423,3.419-.671a.638.638,0,1,1,.286,1.243c-1.094.261-2.238.485-3.506.684Zm6.85-1.641a.629.629,0,0,1-.2-1.243,26.492,26.492,0,0,0,3.183-1.318.623.623,0,1,1,.547,1.119,27.623,27.623,0,0,1-3.332,1.38Zm6.216-3.158a.622.622,0,0,1-.361-1.131,18.818,18.818,0,0,0,1.827-1.492q.373-.348.721-.733a.625.625,0,0,1,.932.833q-.385.423-.8.82a20.21,20.21,0,0,1-1.952,1.591.622.622,0,0,1-.286.174Zm4.6-5.234a.622.622,0,0,1-.559-.9,14.682,14.682,0,0,0,1.131-3.183.638.638,0,1,1,1.243.286,16,16,0,0,1-1.243,3.444.622.622,0,0,1-.448.41Zm1.6-6.862a.572.572,0,0,1-.622-.559v-.137a13.523,13.523,0,0,0-.373-3.207.639.639,0,0,1,1.243-.3,14.846,14.846,0,0,1,.41,3.518.684.684,0,0,1-.572.733Zm-1.74-6.676a.622.622,0,0,1-.522-.286,7.82,7.82,0,0,0-2.238-2.35.622.622,0,1,1,.7-1.032,9.062,9.062,0,0,1,2.6,2.71.622.622,0,0,1-.522.957Z" transform="translate(61.668 10.216)" fill="#50cefb"/>
  <path id="Path_6846" data-name="Path 6846" d="M217.839,195.057a.622.622,0,1,1,0-1.243c1.169,0,2.337-.062,3.493-.149a.623.623,0,1,1,.087,1.243c-1.169.075-2.362.124-3.555.149Zm-3.518,0h0a34.189,34.189,0,0,1-3.543-.186.622.622,0,0,1-.572-.671.646.646,0,0,1,.671-.572q1.765.137,3.493.186a.622.622,0,0,1,0,1.243Zm10.555-.435a.623.623,0,0,1-.075-1.243c1.156-.137,2.325-.3,3.456-.5a.631.631,0,1,1,.211,1.243c-1.156.2-2.337.373-3.518.51Zm-17.628-.137h0q-1.74-.211-3.518-.51a.629.629,0,1,1,.2-1.243q1.74.286,3.456.5a.623.623,0,1,1-.075,1.243Zm24.515-1.094a.625.625,0,0,1-.137-1.243c1.144-.261,2.275-.559,3.369-.87a.645.645,0,0,1,.348,1.243c-1.131.323-2.287.622-3.444.9Zm-31.465,0h-.124q-1.716-.361-3.456-.8a.639.639,0,0,1,.3-1.243q1.716.435,3.406.783a.625.625,0,1,1-.124,1.243Zm-6.837-1.716h-.174q-1.691-.5-3.381-1.069a.623.623,0,0,1,.4-1.181q1.678.559,3.344,1.057a.628.628,0,0,1-.174,1.243Zm45.065-.186a.63.63,0,1,1-.211-1.243c1.106-.4,2.188-.821,3.245-1.243a.622.622,0,1,1,.485,1.144,33.112,33.112,0,0,1-3.319,1.243.621.621,0,0,1-.162.037Zm-51.741-2.051a.622.622,0,0,1-.224,0q-1.641-.622-3.294-1.305a.622.622,0,1,1,.485-1.144q1.629.684,3.257,1.243a.632.632,0,0,1-.224,1.243Zm58.205-.733a.622.622,0,0,1-.286-1.181c1.032-.535,2.051-1.094,3.046-1.691a.625.625,0,0,1,.646,1.069,33.262,33.262,0,0,1-3.12,1.74.622.622,0,0,1-.236,0Zm-64.707-1.989a.621.621,0,0,1-.261,0q-1.591-.733-3.195-1.529a.625.625,0,1,1,.559-1.119q1.579.8,3.158,1.517a.635.635,0,1,1-.261,1.243Zm70.736-1.666a.622.622,0,0,1-.361-1.131c.945-.684,1.877-1.392,2.735-2.126a.622.622,0,0,1,.808.945c-.9.758-1.84,1.492-2.822,2.2a.622.622,0,0,1-.323.05Zm-77.076-1.479a.622.622,0,0,1-.3-.075q-1.541-.833-3.083-1.74a.622.622,0,1,1,.622-1.069q1.529.9,3.058,1.716a.622.622,0,0,1-.3,1.169Zm82.4-3.071a.622.622,0,0,1-.447-1.057c.82-.833,1.6-1.7,2.312-2.573a.623.623,0,0,1,.97.783,34.083,34.083,0,0,1-2.4,2.66.621.621,0,0,1-.361.124Zm4.438-5.458a.622.622,0,0,1-.522-.957,30.029,30.029,0,0,0,1.716-2.984.622.622,0,1,1,1.106.559,31.212,31.212,0,0,1-1.79,3.108.621.621,0,0,1-.435.2Zm3.133-6.29a.609.609,0,0,1-.211,0,.622.622,0,0,1-.373-.8,25.974,25.974,0,0,0,.932-3.307.635.635,0,0,1,1.243.261,27.148,27.148,0,0,1-.982,3.468.622.622,0,0,1-.535.3Zm1.454-6.875h0a.622.622,0,0,1-.572-.671q.062-.907.062-1.815v-1.616a.623.623,0,1,1,1.243-.075v1.7q0,.845-.075,1.9a.622.622,0,0,1-.584.51Zm-.46-7.011a.622.622,0,0,1-.609-.5,26.751,26.751,0,0,0-.907-3.319.623.623,0,0,1,1.181-.4,28.09,28.09,0,0,1,.945,3.481.622.622,0,0,1-.485.733Zm-2.25-6.651a.622.622,0,0,1-.559-.348,31.93,31.93,0,0,0-1.666-3.033.623.623,0,1,1,1.057-.659,33.575,33.575,0,0,1,1.728,3.145.622.622,0,0,1-.559.9Zm-3.729-5.992a.621.621,0,0,1-.5-.249c-.684-.9-1.43-1.79-2.213-2.673a.622.622,0,0,1,.92-.833c.808.907,1.579,1.827,2.275,2.747a.622.622,0,0,1-.5.995Zm-4.7-5.246a.621.621,0,0,1-.435-.174c-.8-.771-1.666-1.566-2.573-2.362a.622.622,0,1,1,.82-.932c.92.808,1.8,1.616,2.623,2.412a.622.622,0,0,1-.435,1.069Zm-5.283-4.662a.622.622,0,0,1-.4-.137q-1.355-1.106-2.747-2.188a.624.624,0,1,1,.771-.982q1.392,1.094,2.772,2.2a.622.622,0,0,1-.4,1.106Zm-5.545-4.351a.622.622,0,0,1-.385-.124l-2.785-2.163a.624.624,0,1,1,.771-.982l2.785,2.151a.622.622,0,0,1-.385,1.119Zm-5.544-4.364a.622.622,0,0,1-.4-.137q-1.38-1.131-2.7-2.3a.622.622,0,0,1,.82-.932q1.305,1.156,2.673,2.263a.622.622,0,0,1-.4,1.106Zm-5.259-4.687a.622.622,0,0,1-.435-.174c-.87-.858-1.691-1.728-2.486-2.586a.622.622,0,0,1,.932-.82,34.515,34.515,0,0,0,2.4,2.486.622.622,0,0,1-.435,1.069Zm-5.159-5.545.51-.361-.522.336c-.709-.945-1.38-1.914-2.014-2.884a.624.624,0,1,1,1.044-.684c.622.957,1.243,1.9,1.952,2.81l-.46.423Zm-3.344-5.644a.622.622,0,0,1-.547-.311c-.584-1.032-1.144-2.1-1.653-3.158a.622.622,0,0,1,1.119-.535c.5,1.032,1.044,2.076,1.616,3.083a.622.622,0,0,1-.547.932Zm-3.058-6.353a.622.622,0,0,1-.572-.4c-.186-.46-.361-.932-.535-1.4a.622.622,0,0,1,1.169-.423q.249.684.522,1.367a.622.622,0,0,1-.572.858Z" transform="translate(41.41 24.023)" fill="#50cefb"/>
  <path id="Path_6847" data-name="Path 6847" d="M82.539,144.445a26.319,26.319,0,0,1-3.593-.249.622.622,0,0,1-.535-.7.634.634,0,0,1,.7-.535,25.1,25.1,0,0,0,3.419.236.622.622,0,0,1,0,1.243Zm-6.937-.97h-.174a25.525,25.525,0,0,1-3.381-1.243.639.639,0,1,1,.547-1.156,24.213,24.213,0,0,0,3.22,1.181.628.628,0,0,1-.174,1.243Zm-6.4-2.859a.622.622,0,0,1-.323-.1,29.913,29.913,0,0,1-2.934-2.076.623.623,0,1,1,.783-.97,28.835,28.835,0,0,0,2.81,1.989.622.622,0,0,1-.323,1.156Zm-5.495-4.388a.622.622,0,0,1-.435-.186,35.518,35.518,0,0,1-2.412-2.648.622.622,0,0,1,.957-.8c.758.908,1.542,1.765,2.337,2.561a.622.622,0,0,1-.435,1.057Zm-4.513-5.408a.622.622,0,0,1-.51-.261c-.671-.957-1.318-1.964-1.939-3.008a.622.622,0,1,1,1.069-.634c.6,1.007,1.243,2,1.877,2.921a.625.625,0,0,1-.448.982Zm-3.605-6.054a.622.622,0,0,1-.559-.336c-.522-1.044-1.032-2.126-1.5-3.232a.624.624,0,1,1,1.144-.5c.46,1.082.957,2.138,1.479,3.158a.622.622,0,0,1-.559.908ZM52.8,118.289a.622.622,0,0,1-.584-.41c-.4-1.119-.771-2.25-1.106-3.394a.645.645,0,0,1,1.243-.348c.323,1.106.7,2.225,1.082,3.319a.622.622,0,0,1-.584.833Zm-1.989-6.763a.622.622,0,0,1-.609-.485c-.273-1.243-.5-2.362-.671-3.506a.629.629,0,0,1,1.243-.186c.174,1.106.4,2.263.659,3.419a.622.622,0,0,1-.472.746Zm-1.057-6.974a.622.622,0,0,1-.622-.584c0-.659-.062-1.243,0-1.877s0-1.243.062-1.728a.624.624,0,1,1,1.243.1c0,.51,0,1.057,0,1.629v1.8a.622.622,0,0,1-.584.659Z" transform="translate(11.965 24.274)" fill="#50cefb"/>
  <path id="Path_6848" data-name="Path 6848" d="M74.121,58.482H73.96a.622.622,0,0,1-.435-.771,27.076,27.076,0,0,1,1.243-3.394.624.624,0,0,1,1.144.5,25.635,25.635,0,0,0-1.144,3.245A.622.622,0,0,1,74.121,58.482Zm2.772-6.464a.622.622,0,0,1-.535-.945A29.838,29.838,0,0,1,78.373,48.1a.622.622,0,0,1,.982.758,28.593,28.593,0,0,0-1.939,2.847.622.622,0,0,1-.572.348Zm4.289-5.569a.622.622,0,0,1-.448-1.057A32.509,32.509,0,0,1,83.383,42.9a.622.622,0,0,1,.783.957A31.078,31.078,0,0,0,81.68,46.2a.622.622,0,0,1-.547.286Zm5.37-4.426a.622.622,0,0,1-.336-1.144,33.929,33.929,0,0,1,3.108-1.8.623.623,0,0,1,.572,1.106,32.835,32.835,0,0,0-3,1.728A.622.622,0,0,1,86.553,42.022Zm6.216-3.195a.632.632,0,1,1-.224-1.243,32.733,32.733,0,0,1,3.419-1.094.641.641,0,1,1,.311,1.243A31.39,31.39,0,0,0,92.98,38.79a.622.622,0,0,1-.149.037Zm17.3-1.243h-.149a25.907,25.907,0,0,0-3.381-.6.625.625,0,0,1,.137-1.243,27.138,27.138,0,0,1,3.555.622.626.626,0,1,1-.149,1.243Zm-10.5-.485a.623.623,0,0,1-.087-1.243,29.959,29.959,0,0,1,3.58-.286.646.646,0,0,1,.634.609.622.622,0,0,1-.609.634,28.7,28.7,0,0,0-3.431.274Z" transform="translate(17.897 8.659)" fill="#50cefb"/>
  <path id="Path_6849" data-name="Path 6849" d="M250.8,113.268a21.793,21.793,0,0,1-17.889-9.212,28.593,28.593,0,0,1-21.059,9.212,28.991,28.991,0,0,1-19.17-7.36,16.944,16.944,0,1,1-9.15-26.641,28.8,28.8,0,0,1,54.824-6.1,21.992,21.992,0,1,1,12.432,40.117ZM233.235,99.593l.97,1.616a19.381,19.381,0,1,0,4.388-24.863l-1.455,1.243-.609-1.865a26.107,26.107,0,0,0-50.609,5.458l-.211,1.653-1.554-.584a14.135,14.135,0,0,0-4.973-.883,14.3,14.3,0,1,0,12.133,21.842l.883-1.4,1.181,1.169a26.067,26.067,0,0,0,38.663-1.914Z" transform="translate(39.478 13.545)" fill="#fff"/>
  <path id="Path_6850" data-name="Path 6850" d="M202.995,89.75H189.78V87c0-3.046,3.618-5.482,6.6-5.482s6.6,2.486,6.6,5.482Zm-11.624-1.591h10.045V87c0-2.064-2.81-3.9-4.973-3.9s-4.973,1.84-4.973,3.9Z" transform="translate(46.172 19.832)" fill="#50cefb"/>
  <path id="Path_6851" data-name="Path 6851" d="M196.172,83.5a5.482,5.482,0,1,1,5.482-5.482A5.482,5.482,0,0,1,196.172,83.5Zm0-9.386a3.9,3.9,0,1,0,3.9,3.9A3.9,3.9,0,0,0,196.172,74.119Z" transform="translate(46.393 17.648)" fill="#50cefb"/>
  <path id="Path_6852" data-name="Path 6852" d="M216.995,89.75H203.78V87c0-3.046,3.618-5.482,6.6-5.482s6.6,2.486,6.6,5.482Zm-11.624-1.591h10.045V87c0-2.064-2.81-3.9-4.973-3.9s-4.973,1.84-4.973,3.9Z" transform="translate(49.576 19.832)" fill="#50cefb"/>
  <path id="Path_6853" data-name="Path 6853" d="M210.172,83.5a5.482,5.482,0,1,1,5.482-5.482A5.482,5.482,0,0,1,210.172,83.5Zm0-9.386a3.9,3.9,0,1,0,3.9,3.9A3.9,3.9,0,0,0,210.172,74.119Z" transform="translate(49.798 17.648)" fill="#50cefb"/>
  <path id="Path_6854" data-name="Path 6854" d="M201.956,72.445a.8.8,0,0,1-.8-.8V66.366a.8.8,0,0,1,1.591,0v5.283A.8.8,0,0,1,201.956,72.445Z" transform="translate(48.939 15.954)" fill="#50cefb"/>
  <path id="Path_6855" data-name="Path 6855" d="M200.116,73.013a.8.8,0,0,1-.646-.323l-3.1-4.276a.8.8,0,1,1,1.243-.932l3.1,4.277A.8.8,0,0,1,200.066,73Z" transform="translate(47.708 16.305)" fill="#50cefb"/>
  <path id="Path_6856" data-name="Path 6856" d="M204.233,73.016a.8.8,0,0,1-.646-1.243l3.033-4.3a.8.8,0,1,1,1.243.932l-3.1,4.277a.8.8,0,0,1-.535.336Z" transform="translate(49.496 16.302)" fill="#50cefb"/>
  <path id="Path_6857" data-name="Path 6857" d="M104.628,161.2a12.345,12.345,0,1,1,2.026-.162A12.345,12.345,0,0,1,104.628,161.2Zm0-22.862a10.681,10.681,0,0,0-1.728.137,10.5,10.5,0,1,0,1.728-.137Z" transform="translate(22.472 33.204)" fill="#50cefb"/>
  <path id="Path_6858" data-name="Path 6858" d="M105.46,166.238a16.559,16.559,0,1,1,2.71-.224A16.734,16.734,0,0,1,105.46,166.238Zm0-31.266a14.744,14.744,0,1,0,11.959,23.347h0a14.744,14.744,0,0,0-11.959-23.347Z" transform="translate(21.641 32.379)" fill="#50cefb"/>
  <path id="Path_6859" data-name="Path 6859" d="M91.439,167.772a3.916,3.916,0,0,1-3.655-2.723,2.747,2.747,0,0,1,.361-2.362l.075-.087v-.087l5.706-7.944,5.582,4-5.843,8.105h0a2.747,2.747,0,0,1-2.126,1.106Zm1.616-1.678.348.286Zm1.343-9.1-4.749,6.639-.112.124a1.044,1.044,0,0,0,0,.783,2.151,2.151,0,0,0,2.039,1.467,1.007,1.007,0,0,0,.783-.373l.162-.224,4.649-6.464Z" transform="translate(21.34 37.596)" fill="#50cefb"/>
  <text id="_" data-name="?" transform="translate(124.017 183.757)" fill="#fff" font-size="9" font-family="Helvetica"><tspan x="0" y="0">?</tspan></text>
  <path id="Path_6860" data-name="Path 6860" d="M146.11,15.31a3.145,3.145,0,1,1,3.12-3.145,3.145,3.145,0,0,1-3.12,3.145Zm0-5.308a2.163,2.163,0,1,0,2.163,2.163A2.163,2.163,0,0,0,146.11,10Z" transform="translate(34.782 2.202)" fill="#50cefb"/>
  <path id="Path_6861" data-name="Path 6861" d="M146.577,24.882l-.423-.709c-.211-.348-5.134-8.7-5.134-11.537a5.557,5.557,0,0,1,11.114,0c0,2.9-4.973,11.189-5.134,11.537Zm0-16.82A4.575,4.575,0,0,0,142,12.637c0,1.989,3,7.583,4.575,10.318,1.579-2.747,4.575-8.329,4.575-10.318A4.575,4.575,0,0,0,146.577,8.062Z" transform="translate(34.315 1.731)" fill="#50cefb"/>
  <path id="Path_6862" data-name="Path 6862" d="M141.486,37.713a12.711,12.711,0,1,1,0-25.423,12.879,12.879,0,0,1,1.74.124l-.137.97a11.872,11.872,0,0,0-1.6-.112,11.723,11.723,0,1,0,11.039,7.757l.92-.336a12.718,12.718,0,0,1-11.959,17.019Z" transform="translate(31.337 2.998)" fill="#42a5f5"/>
  <path id="Path_6863" data-name="Path 6863" d="M149.55,30.233a13.178,13.178,0,0,0-17.5,0L131.4,29.5a14.147,14.147,0,0,1,18.809,0Z" transform="translate(31.976 6.312)" fill="#42a5f5"/>
  <path id="Path_6864" data-name="Path 6864" d="M140.729,19.049a14.2,14.2,0,0,1-8.839-3.108l.609-.771a13.028,13.028,0,0,0,8.23,2.9,13.215,13.215,0,0,0,3.456-.46l.261.945a14.184,14.184,0,0,1-3.717.5Z" transform="translate(32.095 3.698)" fill="#42a5f5"/>
  <path id="Path_6865" data-name="Path 6865" d="M132.1,15.48" transform="translate(32.146 3.773)" fill="#42a5f5" stroke="#4292ff" stroke-miterlimit="10" stroke-width="2.13"/>
  <rect id="Rectangle_3062" data-name="Rectangle 3062" width="0.982" height="24.441" transform="translate(172.302 15.772)" fill="#42a5f5"/>
  <rect id="Rectangle_3063" data-name="Rectangle 3063" width="24.441" height="0.982" transform="translate(160.566 27.508)" fill="#42a5f5"/>
  <path id="Path_6866" data-name="Path 6866" d="M140.48,37.6c-3.978,0-7.21-5.582-7.21-12.432S136.5,12.74,140.48,12.74v.982c-3.431,0-6.216,5.134-6.216,11.462s2.8,11.462,6.216,11.462S146.7,31.5,146.7,25.184h.982C147.678,32.022,144.446,37.6,140.48,37.6Z" transform="translate(32.431 3.107)" fill="#42a5f5"/>
  <path id="Path_6867" data-name="Path 6867" d="M88.543,105.268a21.793,21.793,0,0,1-17.889-9.2,28.593,28.593,0,0,1-21.072,9.2,28.991,28.991,0,0,1-19.17-7.36,16.944,16.944,0,1,1-9.15-26.641,28.8,28.8,0,0,1,54.824-6.1,21.992,21.992,0,1,1,12.457,40.1ZM70.965,91.593l.97,1.616a19.381,19.381,0,1,0,4.388-24.863l-1.454,1.243-.634-1.765a26.107,26.107,0,0,0-50.609,5.333l-.211,1.653-1.542-.622a14.135,14.135,0,0,0-4.973-.883A14.3,14.3,0,1,0,29.07,95.2l.883-1.4,1.181,1.169a26.343,26.343,0,0,0,18.461,7.67,26.032,26.032,0,0,0,20.2-9.585Z" transform="translate(0.019 11.599)" fill="#fff"/>
  <path id="Path_6868" data-name="Path 6868" d="M32.2,61.595l-.659-2.225c-.224-.721-.373-1.5.609-1.815s1.318.423,1.542,1.131l.684,2.163.671-.211c.783-.249,1.529-.311,1.815.609s-.348,1.243-1.131,1.542l-.671.311.783,2.486.671-.211c.783-.249,1.529-.311,1.815.609s-.348,1.243-1.131,1.542l-.671.211.646,2.126c.224.721.373,1.5-.609,1.815s-1.318-.423-1.542-1.131l-.684-2.163-2.1.659.684,2.163c.224.721.373,1.5-.609,1.815s-1.318-.423-1.542-1.131l-.684-2.163-.671.211c-.783.249-1.529.311-1.815-.609s.348-1.243,1.131-1.542l.671-.211-.783-2.486-.671.211c-.783.249-1.529.311-1.815-.609s.348-1.243,1.131-1.542l.671-.211-.684-2.163c-.224-.721-.373-1.5.609-1.815s1.318.423,1.542,1.131l.684,2.163ZM30.783,64.4l.783,2.486,2.1-.659-.783-2.486Z" transform="translate(6.361 13.987)" fill="#50cefb"/>
  <path id="Path_6869" data-name="Path 6869" d="M49.386,60.872,54.6,63.843a1.343,1.343,0,0,1,.448,1.653l-1.827,3.17a.162.162,0,0,1-.261.062L46.067,64.8A.286.286,0,0,1,46,64.477l1.753-3.17a1.243,1.243,0,0,1,1.629-.46Z" transform="translate(11.204 14.772)" fill="#50cefb" fill-rule="evenodd"/>
  <path id="Path_6870" data-name="Path 6870" d="M37.177,88.291a.8.8,0,0,1-.783-.721l-.522-5.743a.8.8,0,0,1,1.243-.758l5.756,3.294a.8.8,0,0,1,0,1.4l-5.234,2.486a.8.8,0,0,1-.46.037Zm.41-5.1L37.86,86.3l2.822-1.33Z" transform="translate(8.745 19.688)" fill="#67cdfd"/>
  <path id="Path_6871" data-name="Path 6871" d="M43.024,89.236,36,85.258,47.574,64.82l7.074,3.953Zm-4.848-4.575,4.252,2.412L52.435,69.395l-4.252-2.412Z" transform="translate(8.778 15.771)" fill="#50cefb"/>
  <path id="Path_6872" data-name="Path 6872" d="M295.628,27.41h-4.277a.622.622,0,0,0,0,1.243h4.277a.622.622,0,1,0,0-1.243Z" transform="translate(70.72 6.674)" fill="#50cefb"/>
  <path id="Path_6873" data-name="Path 6873" d="M292.318,30.612a1.119,1.119,0,0,0,2.2,0,1.392,1.392,0,0,0,1.318-1.392H291A1.392,1.392,0,0,0,292.318,30.612Z" transform="translate(70.785 7.114)" fill="#50cefb"/>
  <path id="Path_6874" data-name="Path 6874" d="M293.106,12a.8.8,0,0,0-.8.8V14.66a.8.8,0,0,0,1.6,0V12.8a.8.8,0,0,0-.8-.8" transform="translate(71.104 2.927)" fill="#50cefb"/>
  <path id="Path_6875" data-name="Path 6875" d="M288.96,16.288a.8.8,0,0,0,1.243-.945l-1.094-1.5a.8.8,0,0,0-1.243.945Z" transform="translate(70.004 3.325)" fill="#50cefb"/>
  <path id="Path_6876" data-name="Path 6876" d="M287.71,18.05l-1.765-.572a.8.8,0,0,0-.5,1.517l1.765.572a.8.8,0,0,0,.5-1.517Z" transform="translate(69.302 4.249)" fill="#50cefb"/>
  <path id="Path_6877" data-name="Path 6877" d="M301.11,22.4l-1.765-.572a.8.8,0,1,0-.5,1.517l1.765.572a.8.8,0,0,0,.5-1.517Z" transform="translate(72.56 5.307)" fill="#50cefb"/>
  <path id="Path_6878" data-name="Path 6878" d="M287.213,21.828l-1.765.572a.8.8,0,0,0,.5,1.517l1.765-.572a.8.8,0,0,0-.5-1.517Z" transform="translate(69.302 5.307)" fill="#50cefb"/>
  <path id="Path_6879" data-name="Path 6879" d="M299.1,19.6a.8.8,0,0,0,.249,0l1.765-.572a.8.8,0,1,0-.5-1.517l-1.765.572a.8.8,0,0,0,.249,1.566Z" transform="translate(72.546 4.257)" fill="#50cefb"/>
  <path id="Path_6880" data-name="Path 6880" d="M297.227,13.842l-1.082,1.492a.8.8,0,0,0,1.243.945l1.094-1.5a.8.8,0,0,0-1.243-.945Z" transform="translate(72.017 3.323)" fill="#50cefb"/>
  <path id="Path_6881" data-name="Path 6881" d="M296.889,29.1h-5.806V27a19.313,19.313,0,0,0-1.318-1.914,5.333,5.333,0,0,1-1.156-3.332,5.4,5.4,0,0,1,10.791,0,5.321,5.321,0,0,1-1.156,3.332,21.565,21.565,0,0,0-1.355,2.014Zm-4.214-1.591h2.636V26.6l.112-.186A23.345,23.345,0,0,1,297,24.1a3.729,3.729,0,0,0,.82-2.35,3.8,3.8,0,1,0-7.608,0,3.729,3.729,0,0,0,.82,2.35,20.892,20.892,0,0,1,1.554,2.275l.112.186Z" transform="translate(70.204 3.987)" fill="#50cefb"/>
</svg>
