<svg xmlns="http://www.w3.org/2000/svg" width="11" height="15" viewBox="0 0 11 15">
  <g id="Vector_Smart_Object" data-name="Vector Smart Object" transform="translate(-874 -543)">
    <g id="Vector_Smart_Object-2" data-name="Vector Smart Object" transform="translate(284.946 214.47)">
      <ellipse id="Ellipse_9" data-name="Ellipse 9" cx="1.29" cy="1.349" rx="1.29" ry="1.349" transform="translate(593.264 336.827)" fill="#231f20"/>
      <path id="Path_161" data-name="Path 161" d="M599,343.529h-8.9a1.078,1.078,0,0,1-1.052-1.1v-8.506a1.078,1.078,0,0,1,1.052-1.1H599a1.078,1.078,0,0,1,1.052,1.1v8.506A1.078,1.078,0,0,1,599,343.529Zm-8.9-9.606v8.506H599v-8.506Z" fill="#231f20"/>
      <path id="Path_162" data-name="Path 162" d="M597.3,333.912a.538.538,0,0,1-.526-.55V331.95a2.221,2.221,0,1,0-4.438,0v1.412a.527.527,0,1,1-1.052,0V331.95a3.274,3.274,0,1,1,6.542,0v1.412A.539.539,0,0,1,597.3,333.912Z" fill="#231f20"/>
    </g>
    <path id="Color_Overlay" data-name="Color Overlay" d="M875.052,558A1.078,1.078,0,0,1,874,556.9v-8.506a1.078,1.078,0,0,1,1.052-1.1h1.177v-.873a3.274,3.274,0,1,1,6.542,0v.873h1.177a1.078,1.078,0,0,1,1.051,1.1V556.9a1.077,1.077,0,0,1-1.051,1.1Zm0-1.1h8.9v-8.506h-8.9Zm2.229-10.48v.873h4.438v-.873a2.221,2.221,0,1,0-4.438,0Zm.929,6.227A1.291,1.291,0,1,1,879.5,554,1.321,1.321,0,0,1,878.21,552.647Z" fill="#324659"/>
  </g>
</svg>
