<svg xmlns="http://www.w3.org/2000/svg" width="12.608" height="9.359" viewBox="0 0 12.608 9.359">
  <path id="Path_5370" data-name="Path 5370" d="M11.335,0H1.263A1.263,1.263,0,0,0,0,1.263V8.1A1.263,1.263,0,0,0,1.263,9.359H11.335A1.263,1.263,0,0,0,12.608,8.1V1.263A1.263,1.263,0,0,0,11.335,0ZM1.263.993H11.335a.27.27,0,0,1,.27.27v.631l-4.372,3a1.711,1.711,0,0,1-1.927,0L.988,1.9V1.263a.27.27,0,0,1,.275-.27ZM11.335,8.377H1.263a.27.27,0,0,1-.27-.27v-5l3.746,2.6a2.7,2.7,0,0,0,3.055,0L11.61,3.093v5a.27.27,0,0,1-.275.281Z" fill="#324659"/>
</svg>
